<svg xmlns="http://www.w3.org/2000/svg" xmlns:xlink="http://www.w3.org/1999/xlink" id="Isolation_Mode" x="0px" y="0px" viewBox="0 0 700 700" style="enable-background:new 0 0 700 700;" xml:space="preserve"><style type="text/css">	.st0{fill:#7D6E72;}</style><path class="st0" d="M386.06,244.46c-14.91,0-27.05,12.13-27.05,27.05c0,14.91,12.13,27.05,27.05,27.05 c14.91,0,27.05-12.13,27.05-27.05C413.1,256.6,400.97,244.46,386.06,244.46L386.06,244.46z M386.06,280.52 c-4.98,0-9.02-4.05-9.02-9.02s4.04-9.02,9.02-9.02s9.02,4.05,9.02,9.02S391.04,280.52,386.06,280.52z"></path><path class="st0" d="M565.48,181.36c6.46-18.27,9.9-37.32,9.9-56.91V18.04l-10.01,1.12c-41.12,4.56-79.67,22.59-109.73,50.78 c-11.23-9.07-29.74-14.78-51.55-14.78c-22.18,0-40.96,5.91-52.14,15.23C320.37,31.71,274.64,6.65,224.79,1.11L214.77,0v97.32 c-15.71,6.04-25.88,16.1-26.88,28.02l-14.04,42.07c-1.52,4.57-2.58,9.25-3.27,13.98c-0.3,0-0.59-0.03-0.88-0.03l-99.17,0v9.02 c0,64.21,46.02,119.7,108.18,132.38v93h9.02c9.05,0,18.07-0.59,27.05-1.55v91.7h-18.03c-9.95,0-18.03,8.09-18.03,18.03v18.03 c0,9.95,8.09,18.03,18.03,18.03h306.52c9.95,0,18.03-8.09,18.03-18.03v-18.03c0-9.95-8.09-18.03-18.03-18.03h-18.03v-91.7 c8.98,0.96,18,1.55,27.05,1.55h9.02l0-93c62.17-12.68,108.18-68.18,108.18-132.38v-9.02l-63.99,0L565.48,181.36z M557.35,124.45 c0,19.68-3.88,38.77-11.16,56.91H530.3c-8.03,0-16.05,0.81-23.92,2.22c-1.34-0.48-2.65-0.98-4.05-1.31 c-2.27-9.84-8.61-18.14-17.11-23.08V157c0-6.51-0.79-12.96-2.32-19.27c31.44-39.77,62.01-66.49,62.32-66.77l-11.82-13.62 c-1.23,1.07-27.52,24.03-57.07,59.82l-9.3-27.9c-0.14-1.55-0.4-3.08-0.84-4.56c25.05-24.16,56.88-40.38,91.14-46.24l0,85.97 L557.35,124.45z M445.22,276.28c4.18,6.71,4.83,14.55,2.32,21.64c-20.18,5.27-39.72,12.94-58.09,22.95l-13.21,7.2 c-6.46-6.9-15.54-11.27-25.68-11.42v-0.04c-9.95-0.61-18.87-5.76-23.84-13.77c-5.1-8.24-5.04-18.16,0.19-26.56l2.96-4.76l-2.96-4.76 c-5.22-8.39-5.29-18.33-0.19-26.56c5.19-8.4,15.12-13.61,25.88-13.61h0.04h5.04l2.64-4.28c5.3-8.57,15.16-13.9,25.74-13.9 c6.78,0,13.09,2.18,18.29,6.03c-0.07,1-0.25,1.97-0.25,2.99c0,17.1,11.96,31.45,27.96,35.14c1.54,6.68,5.02,12.58,9.7,17.27 L445.22,276.28z M223.79,199.39c0-16.51,19.95-30.91,29.48-36.16c2.19-0.05,4.41-0.09,6.38-0.27c11.52-0.88,30.94-3.84,43.16-13.5 l7.89,23.66c0.02,0.06,0.04,0.12,0.05,0.2c-4.74-0.61-9.69-0.96-14.86-0.96c-34.82,0-61.29,14.55-62.95,34.13l-4.13,12.37 C224.89,209.52,223.79,203.31,223.79,199.39L223.79,199.39z M340.99,163.33V157c0-6.79,1.09-13.52,3.23-19.95l8.22-24.65 c8.22,6.68,20.39,11.52,34.92,13.65c-5.16,8.98-10.3,21.77-10.3,37.28c0,7.46,1.23,16.63,3.63,27.35 c-8.57,0.95-16.62,4.16-23.4,9.09c-2.2-5.5-6.42-10.46-12.32-14.58C342.38,178.22,340.99,170.9,340.99,163.33L340.99,163.33z  M467.2,190.38c-6.95,0-13.23,2.71-18.03,7.03v-7.03c0-9.95,8.09-18.03,18.03-18.03c9.95,0,18.03,8.09,18.03,18.03v7.03 C480.44,193.09,474.15,190.38,467.2,190.38z M476.22,217.43c0,4.97-4.04,9.02-9.02,9.02c-4.98,0-9.02-4.05-9.02-9.02 s4.04-9.02,9.02-9.02C472.18,208.41,476.22,212.46,476.22,217.43z M447.19,235.45h-7.03c-9.95,0-18.03-8.09-18.03-18.03 c0-9.95,8.09-18.03,18.03-18.03h7.03c-4.33,4.8-7.03,11.08-7.03,18.03S442.87,230.66,447.19,235.45z M456.08,113.4l7.88,23.65 c1.87,5.6,2.78,11.41,3.03,17.29c-17,0.1-31.25,12.02-34.93,27.94c-8.9,2.05-16.46,7.48-21.49,14.78 c-3.41-1.97-7.04-3.47-10.86-4.56c-2.97-11.81-4.62-21.9-4.62-29.16c0-17.65,9.1-31,13.3-36.24c1.52-0.06,3.13-0.06,4.54-0.19 C424.44,126.03,443.86,123.07,456.08,113.4L456.08,113.4z M328.03,215.01c-6.86-9.17-22.7-15.61-41.13-15.61v18.03 c13.12,0,21.96,4.06,25.38,6.88c-1.44,0.57-3.98,1.21-7.69,1.65c-2.11,0.19-3.91,0.32-5.35,0.38c-1.09,0.05-2.07,0.11-3.33,0.11 h-0.01c-27.52,0-45.08-10.68-45.08-18.03s17.56-18.03,45.08-18.03s45.08,10.68,45.07,18.73v0.86 C336.4,211.06,332.05,212.76,328.03,215.01L328.03,215.01z M234.41,293.89c-0.95-4.37-1.6-8.82-1.6-13.35v-6.33 c0-6.79,1.09-13.52,3.23-19.95l8.22-24.65c8.22,6.68,20.39,11.52,34.92,13.65c-5.16,8.98-10.3,21.77-10.3,37.28 c0,6.47,1.02,14.35,2.83,23.29C259.52,299.61,247.07,296.23,234.41,293.89L234.41,293.89z M292.09,311.86 c-3.35-12.77-5.18-23.61-5.18-31.32c0-17.59,9.04-30.91,13.25-36.2c0.3-0.02,0.54-0.02,0.87-0.04c1.35-0.06,2.65-0.15,3.91-0.27 c0.35-0.03,0.76-0.07,1.12-0.11c-2.05,9.16-1.12,18.82,2.96,27.59c-6.12,13.15-5.34,28.36,2.37,40.8 c3.55,5.73,8.37,10.49,13.93,14.18c-0.54,0.5-1.05,1.03-1.55,1.57l-13.21-7.2C304.53,317.59,298.34,314.64,292.09,311.86 L292.09,311.86z M350.01,370.69c-9.95,0-18.03-8.09-18.03-18.03c0-9.95,8.09-18.03,18.03-18.03s18.03,8.09,18.03,18.03 C368.04,362.6,359.95,370.69,350.01,370.69z M340.99,451.73c-11.2-0.54-21.13-7.08-25.98-17.04l25.98-41.59V451.73z M359.02,387.44 c0.39-0.1,0.75-0.24,1.12-0.35l34.18,56.96c-5.26,15.02-19.23,25.34-35.3,25.79L359.02,387.44z M449.17,244.48v-7.03 c4.8,4.33,11.08,7.03,18.03,7.03c6.95,0,13.23-2.71,18.03-7.03v7.03c0,9.95-8.09,18.03-18.03,18.03 C457.26,262.51,449.17,254.42,449.17,244.48L449.17,244.48z M487.22,199.4h7.03c9.95,0,18.03,8.09,18.03,18.03 s-8.09,18.03-18.03,18.03h-7.03c4.33-4.8,7.03-11.08,7.03-18.03S491.54,204.2,487.22,199.4z M404.1,73.19 c27.52,0,45.08,10.68,45.08,18.03c0,5.04-4.2,8.82-10.22,11.59c-4.16-11.74-22.25-20.6-43.87-20.6v18.03 c13.12,0,21.96,4.06,25.38,6.88c-1.58,0.62-4.27,1.36-8.59,1.79c-2.85,0.23-5.5,0.34-7.78,0.35c-27.52,0-45.07-10.68-45.07-18.03 C359.02,83.88,376.59,73.19,404.1,73.19L404.1,73.19z M232.81,20.46c43.18,7.38,82.1,31.09,108.73,66.06 c-0.19,0.91-0.3,1.84-0.39,2.79l-14.04,42.07c-2.36,7.11-3.67,14.49-4,21.95l-9.32-27.96c-0.75-8.91-6.64-16.76-16.12-22.68 c-20.8-36.17-38.79-60.81-39.55-61.85l-14.54,10.66c0.14,0.2,12.04,16.51,27.37,41.5c-6.27-1.12-13-1.75-20.09-1.75 c-6.32,0-12.35,0.5-18.03,1.41V20.46L232.81,20.46z M250.84,109.26c27.52,0,45.08,10.68,45.08,18.03c0,5.04-4.2,8.82-10.22,11.59 c-4.16-11.74-22.25-20.6-43.87-20.6v18.03c13.12,0,21.96,4.06,25.38,6.88c-1.58,0.62-4.27,1.36-8.59,1.79 c-2.85,0.23-5.5,0.34-7.78,0.35c-27.52,0-45.07-10.68-45.07-18.03S223.32,109.26,250.84,109.26L250.84,109.26z M187.73,193.09 c0-6.79,1.09-13.52,3.23-19.95l8.22-24.65c6.67,5.42,15.91,9.66,26.93,12.19c-10.21,9.16-20.35,22.37-20.35,38.73 c0,11.33,5.1,25.99,15.05,43.54l-1.88,5.62c-0.49,1.47-0.88,2.96-1.28,4.45c-18.44-11.36-29.92-31.35-29.92-53.6L187.73,193.09z  M88.92,199.41h80.78c0,28.41,14.58,53.91,37.96,68.56c-41.9-12.48-61.29-32.16-80.1-51.26l-5.58-5.64l-12.75,12.75l5.47,5.54 c21.27,21.62,45.36,45.98,100.66,59.32c0.08,0.84,0.08,1.69,0.19,2.52c-9.23-1.01-18.52-1.62-27.83-1.62h-9.02v14.88 C129.55,292.79,92.84,249.97,88.92,199.41L88.92,199.41z M196.75,307.77c36.71,1.4,72.9,11.33,105.18,28.95l12.73,6.94l-63.82,0 v18.03h63.82l-12.73,6.94c-32.29,17.62-68.47,27.55-105.18,28.95V307.77z M503.28,541.99H196.75v-18.03h306.52L503.28,541.99z  M467.21,505.93h-234.4v-94.24c27.14-4.86,53.48-13.99,77.75-27.23l13.21-7.2c1.16,1.23,2.43,2.32,3.76,3.39l-32.49,51.99l1.34,4.03 c6.46,19.39,24.29,32.48,44.61,33.09v18.15h16.92c26.03,0,48.62-17.64,54.93-42.89l0.91-3.62l-38.07-63.45 c0.21-0.21,0.36-0.47,0.57-0.68l13.21,7.2c24.27,13.24,50.61,22.39,77.75,27.23L467.21,505.93L467.21,505.93z M503.27,397.57 c-36.71-1.4-72.9-11.33-105.18-28.95l-12.73-6.94h63.82v-18.03h-63.82l12.73-6.94c32.29-17.62,68.47-27.55,105.18-28.95V397.57z  M521.3,304.44v-14.88h-9.02c-15.19,0-30.33,1.43-45.23,4.1c0.41-4.43,0.05-8.88-0.92-13.21c0.36,0.01,0.7,0.09,1.07,0.09 c17.09,0,31.45-11.96,35.14-27.96c16-3.68,27.97-18.03,27.97-35.13c0-6.47-1.72-12.54-4.72-17.8c1.58-0.06,3.14-0.23,4.72-0.23 h80.79C607.17,249.96,570.47,292.78,521.3,304.44L521.3,304.44z"></path><path class="st0" d="M136.86,505.29c-4.71,1.91-9.65,3.18-14.7,3.77c1.86-3.38,3.33-6.97,4.38-10.68c2.24-0.53,4.44-1.21,6.59-2.04 c45.37-20.32,20.55-84.9-24.27-73.41c1.78-3.49,3.31-7.1,4.58-10.8C164.85,405.56,191.37,481.41,136.86,505.29L136.86,505.29z  M97.75,427.41c-3.71-1.21-7.33-2.68-10.83-4.38c-27.97,22.24-21.47,69.04,13.8,83.41c2.37-2.49,4.32-5.36,5.77-8.48 C74.39,487.34,69.7,443.94,97.75,427.41L97.75,427.41z M92.65,437.83c-2.34,2.47-4.27,5.31-5.7,8.4 c33.98,10.96,37.18,59.78,3.26,73.27c-46.37,17.96-74.76-45.08-35.15-68.86c-3.69-1.18-7.29-2.62-10.77-4.31 c-40.77,32.16-5.87,103.63,49.66,82.13C135.39,511.65,132.72,453.76,92.65,437.83L92.65,437.83z M56.28,402.86 c-2.3,0.13-7.6,1.34-10.82,9.35c-7.95-3.37-12.55-0.46-14.26,1.07c-1.9,1.95-3.16,4.44-3.59,7.13c-0.44,2.69-0.04,5.45,1.15,7.9 c3.17,7.62,18.06,14.18,26.65,17.41c1.28,0.48,2.69,0.45,3.95-0.07c1.26-0.52,2.28-1.51,2.84-2.75c3.77-8.37,9.63-23.55,6.46-31.17 c-0.9-2.57-2.58-4.8-4.79-6.38C61.66,403.76,59.01,402.89,56.28,402.86L56.28,402.86z M99.2,379.7c-2.3,0.13-7.6,1.34-10.82,9.35 c-7.95-3.37-12.55-0.46-14.26,1.07c-1.9,1.95-3.16,4.44-3.59,7.13c-0.44,2.69-0.04,5.44,1.15,7.9c3.17,7.62,18.06,14.18,26.65,17.41 c1.28,0.48,2.69,0.45,3.95-0.07c1.26-0.52,2.28-1.51,2.84-2.75c3.77-8.37,9.63-23.55,6.46-31.17c-0.9-2.57-2.58-4.8-4.79-6.39 C104.57,380.6,101.92,379.73,99.2,379.7L99.2,379.7z"></path></svg>