<svg xmlns="http://www.w3.org/2000/svg" xmlns:xlink="http://www.w3.org/1999/xlink" id="Isolation_Mode" x="0px" y="0px" viewBox="0 0 700 700" style="enable-background:new 0 0 700 700;" xml:space="preserve"><style type="text/css">	.st0{fill:#8D5C69;}</style><g>	<g>		<path class="st0" d="M314.41,335.94c-3.41,0-6.19-2.78-6.19-6.19c0-7.71-6.27-13.99-13.99-13.99s-13.99,6.27-13.99,13.99   c0,3.41-2.78,6.19-6.19,6.19s-6.19-2.78-6.19-6.19c0-14.53,11.83-26.36,26.36-26.36s26.36,11.83,26.36,26.36   C320.59,333.16,317.82,335.94,314.41,335.94z"></path>		<path class="st0" d="M294.23,305.39c13.32,0,24.36,11.04,24.36,24.36c0,2.29-1.9,4.19-4.18,4.19s-4.19-1.9-4.19-4.19   c0-8.75-7.23-15.99-15.99-15.99c-8.75,0-15.99,7.23-15.99,15.99c0,2.28-1.9,4.19-4.19,4.19s-4.19-1.9-4.19-4.19   C269.87,316.43,280.91,305.39,294.23,305.39 M314.41,333.94L314.41,333.94L314.41,333.94L314.41,333.94 M294.23,301.39   c-7.51,0-14.62,2.97-20,8.36c-5.39,5.39-8.36,12.49-8.36,20c0,4.51,3.67,8.19,8.19,8.19c4.51,0,8.19-3.67,8.19-8.19   c0-6.5,5.49-11.99,11.99-11.99s11.99,5.49,11.99,11.99c0,4.51,3.67,8.19,8.19,8.19c4.51,0,8.18-3.67,8.18-8.19   c0-7.51-2.97-14.62-8.36-20C308.85,304.36,301.75,301.39,294.23,301.39L294.23,301.39z"></path>	</g>	<g>		<path class="st0" d="M375.31,353.45c-3.41,0-6.19-2.78-6.19-6.19V299.3c0-0.53-0.11-1.19-0.94-2.01   c-0.22-0.22-1.08-0.54-1.95-0.56c-20.85,1.53-40.69,9.34-55.88,21.99c-1.16,0.93-2.5,1.4-3.92,1.4c-1.94,0-3.76-0.89-5.01-2.45   c-2.2-2.75-1.73-6.66,1.07-8.9c17.96-14.45,40.39-23.25,63.16-24.79c0.33-0.04,0.77-0.06,1.2-0.06c3.45,0,7.23,1.48,10.13,3.96   l0.11,0.1c3.21,3.21,4.77,6.79,4.77,10.93v48.1l-0.02,0.14C381.34,350.81,378.58,353.45,375.31,353.45z"></path>		<path class="st0" d="M366.87,285.92c3.13,0,6.44,1.43,8.83,3.48c2.67,2.67,4.19,5.71,4.19,9.52v47.96   c-0.38,2.67-2.29,4.57-4.57,4.57l0,0c-2.28,0-4.19-1.9-4.19-4.19V299.3c0-1.14-0.38-2.28-1.52-3.43   c-0.76-0.76-2.28-1.14-3.42-1.14c-20.93,1.52-41.11,9.14-57.09,22.46c-0.79,0.63-1.72,0.94-2.64,0.94c-1.29,0-2.56-0.59-3.45-1.7   c-1.52-1.9-1.14-4.57,0.76-6.09c17.51-14.08,39.58-22.84,62.04-24.36C366.15,285.94,366.51,285.92,366.87,285.92 M366.87,281.92   c-0.48,0-0.95,0.02-1.42,0.07c-23.14,1.58-45.94,10.54-64.2,25.23c-3.67,2.94-4.28,8.08-1.38,11.7c1.63,2.04,4.03,3.2,6.57,3.2   c1.88,0,3.65-0.63,5.14-1.81l0.03-0.03l0.03-0.03c14.84-12.36,34.24-20.01,54.64-21.53c0.23,0.01,0.49,0.07,0.64,0.13   c0.2,0.23,0.2,0.34,0.2,0.44v47.96c0,4.51,3.67,8.19,8.19,8.19c4.28,0,7.86-3.37,8.53-8l0.04-0.28v-0.29v-47.96   c0-4.7-1.75-8.74-5.36-12.34l-0.11-0.11l-0.12-0.1C375.05,283.59,370.78,281.92,366.87,281.92L366.87,281.92z"></path>	</g>	<g>		<path class="st0" d="M212.4,353.45c-3.41,0-6.19-2.78-6.19-6.19V299.3c0-4.14,1.56-7.72,4.77-10.93l0.11-0.1   c3.03-2.59,6.5-3.96,10.03-3.96c0.45,0,0.92,0.02,1.37,0.07c23.22,1.57,45.66,10.38,63.12,24.81c2.78,2.22,3.25,6.13,1.05,8.88   c-1.25,1.56-3.07,2.45-5.01,2.45c-1.42,0-2.77-0.48-3.89-1.38c-15.66-12.68-35.51-20.49-55.91-22.02   c-0.87,0.02-1.72,0.33-1.94,0.55l-0.14,0.14l-0.17,0.11c-0.69,0.46-1.01,1.04-1.01,1.38v47.96   C218.59,350.67,215.81,353.45,212.4,353.45z"></path>		<path class="st0" d="M221.13,286.31c0.39,0,0.77,0.02,1.17,0.06c22.46,1.52,44.53,9.9,62.04,24.36c1.9,1.52,2.28,4.19,0.76,6.09   c-0.89,1.11-2.16,1.7-3.45,1.7c-0.92,0-1.85-0.3-2.64-0.94c-15.99-12.94-36.54-20.93-57.09-22.46c-1.14,0-2.67,0.38-3.43,1.14   c-1.14,0.76-1.9,1.9-1.9,3.04v47.96c0,2.28-1.9,4.19-4.19,4.19l0,0c-2.28,0-4.19-1.9-4.19-4.19V299.3c0-3.81,1.52-6.85,4.19-9.52   C214.79,287.74,217.79,286.31,221.13,286.31 M221.13,282.31L221.13,282.31c-4.02,0-7.93,1.54-11.33,4.45l-0.12,0.1l-0.11,0.11   c-3.61,3.61-5.36,7.64-5.36,12.34v47.96c0,4.51,3.67,8.19,8.19,8.19c2.17,0,4.22-0.86,5.78-2.41c1.55-1.55,2.41-3.61,2.41-5.78   v-47.58c0.03-0.03,0.07-0.06,0.11-0.09l0.34-0.22l0.12-0.12c0.15-0.06,0.41-0.12,0.65-0.13c19.68,1.5,39.6,9.35,54.68,21.56   c1.5,1.2,3.28,1.83,5.16,1.83c2.55,0,4.94-1.17,6.57-3.2c1.42-1.77,2.04-3.97,1.75-6.2c-0.28-2.15-1.38-4.1-3.11-5.49   c-17.76-14.66-40.57-23.63-64.24-25.24C222.13,282.33,221.63,282.31,221.13,282.31L221.13,282.31z"></path>	</g>	<g>		<path class="st0" d="M195.66,605.04c-12.44,0-22.55-10.12-22.55-22.55V417.68c0-3.41,2.78-6.19,6.19-6.19s6.19,2.78,6.19,6.19   v164.81c0,5.4,4.4,9.8,9.8,9.8h153.39c3.41,0,6.19,2.78,6.19,6.19c0,3.16-2.22,6.57-5.81,6.57L195.66,605.04z"></path>		<path class="st0" d="M179.29,413.49c2.28,0,4.19,1.9,4.19,4.19v164.81c0,6.47,5.33,11.8,11.8,11.8h153.39   c2.28,0,4.19,1.9,4.19,4.19s-1.52,4.57-3.81,4.57l0,0H195.66c-11.42,0-20.55-9.14-20.55-20.55V417.68   C175.1,415.4,177.01,413.49,179.29,413.49 M179.29,409.49c-4.51,0-8.19,3.67-8.19,8.19v164.81c0,13.54,11.01,24.55,24.55,24.55   h149.39h4c4.3,0,7.81-3.84,7.81-8.57c0-4.51-3.67-8.19-8.19-8.19H195.28c-4.23,0-7.8-3.57-7.8-7.8v-164.8   C187.48,413.16,183.8,409.49,179.29,409.49L179.29,409.49z"></path>	</g>	<g>		<path class="st0" d="M408.42,490.09c-3.41,0-6.19-2.78-6.19-6.19v-66.23c0-3.41,2.78-6.19,6.19-6.19s6.19,2.78,6.19,6.19v66.23   C414.61,487.32,411.84,490.09,408.42,490.09L408.42,490.09z"></path>		<path class="st0" d="M408.42,413.49c2.28,0,4.19,1.9,4.19,4.19v66.23c0,2.28-1.9,4.18-4.19,4.18l0,0c-2.28,0-4.19-1.9-4.19-4.19   v-66.23C404.24,415.4,406.14,413.49,408.42,413.49 M408.42,409.49c-4.51,0-8.19,3.67-8.19,8.19v66.23c0,4.51,3.67,8.19,8.19,8.19   c4.51,0,8.19-3.67,8.19-8.18v-66.23C416.61,413.16,412.94,409.49,408.42,409.49L408.42,409.49z"></path>	</g>	<g>		<path class="st0" d="M328.49,423.86c-3.41,0-6.19-2.78-6.19-6.19s2.78-6.19,6.19-6.19h88.69c0.42,0,0.67-0.25,0.67-0.67V354.1   c0-0.42-0.25-0.67-0.67-0.67H170.54c-0.42,0-0.67,0.25-0.67,0.67v56.33c0,0.42,0.25,0.67,0.67,0.67h88.69   c3.41,0,6.19,2.78,6.19,6.19s-2.78,6.19-6.19,6.19h-88.69c-7.19,0-13.04-5.85-13.04-13.04v-56.33c0-7.19,5.85-13.04,13.04-13.04   H416.8c7.19,0,13.04,5.85,13.04,13.04v56.28c0.2,3.6-1.01,6.98-3.41,9.52c-2.37,2.51-5.74,3.95-9.25,3.95l0,0H328.49z"></path>		<path class="st0" d="M416.79,343.08c6.09,0,11.04,4.95,11.04,11.04v56.33c0.38,6.47-4.57,11.42-10.65,11.42l0,0h-88.69   c-2.28,0-4.19-1.9-4.19-4.19c0-2.28,1.9-4.19,4.19-4.19h88.69c1.52,0,2.67-1.14,2.67-2.67v-56.71c0-1.52-1.14-2.67-2.67-2.67   H170.54c-1.52,0-2.67,1.14-2.67,2.67v56.33c0,1.52,1.14,2.67,2.67,2.67h88.69c2.28,0,4.19,1.9,4.19,4.19   c0,2.28-1.9,4.19-4.19,4.19h-88.69c-6.09,0-11.04-4.95-11.04-11.04v-56.33c0-6.09,4.95-11.04,11.04-11.04H416.79 M416.79,339.08   H170.53c-8.29,0-15.04,6.75-15.04,15.04v56.33c0,8.29,6.75,15.04,15.04,15.04h88.68c4.51,0,8.19-3.67,8.19-8.19   s-3.67-8.19-8.19-8.19h-87.35v-53.66h243.98v54.04h-87.35c-4.51,0-8.19,3.67-8.19,8.19s3.67,8.19,8.19,8.19h88.69   c4.06,0,7.96-1.67,10.7-4.58c2.76-2.93,4.16-6.81,3.95-10.95v-56.22C431.83,345.82,425.09,339.08,416.79,339.08L416.79,339.08z"></path>	</g>	<g>		<path class="st0" d="M276.73,605.04c-3.41,0-6.19-2.78-6.19-6.19V347.26c0-3.41,2.78-6.19,6.19-6.19s6.19,2.78,6.19,6.19v251.59   C282.92,602.27,280.14,605.04,276.73,605.04z"></path>		<path class="st0" d="M276.73,343.08c2.28,0,4.19,1.9,4.19,4.19v251.59c0,2.28-1.9,4.19-4.19,4.19s-4.19-1.9-4.19-4.19v-251.6   C272.54,344.98,274.45,343.08,276.73,343.08 M276.73,339.08c-4.51,0-8.19,3.67-8.19,8.19v251.59c0,4.51,3.67,8.19,8.19,8.19   s8.19-3.67,8.19-8.19v-251.6C284.92,342.75,281.24,339.08,276.73,339.08L276.73,339.08z"></path>	</g>	<g>		<path class="st0" d="M310.98,605.04c-3.41,0-6.19-2.78-6.19-6.19V347.26c0-3.41,2.78-6.19,6.19-6.19s6.19,2.78,6.19,6.19v251.59   C317.17,602.27,314.4,605.04,310.98,605.04z"></path>		<path class="st0" d="M310.98,343.08c2.28,0,4.19,1.9,4.19,4.19v251.59c0,2.28-1.9,4.19-4.19,4.19c-2.28,0-4.19-1.9-4.19-4.19   v-251.6C306.8,344.98,308.7,343.08,310.98,343.08 M310.98,339.08c-4.51,0-8.19,3.67-8.19,8.19v251.59c0,4.51,3.67,8.19,8.19,8.19   s8.19-3.67,8.19-8.19v-251.6C319.17,342.75,315.5,339.08,310.98,339.08L310.98,339.08z"></path>	</g>	<g>		<path class="st0" d="M457.52,585.63c-14.44,0-27.72-5.96-39.48-17.71c-12.15-12.15-18.11-25.71-17.71-40.29   c0.41-13.56,5.9-26.09,15.46-35.26l50.1-50.11l4.46,4.46c3.99,3.98,21.49,22.46,26.35,45.12c1.07-1.84,3.07-3.08,5.35-3.08   c23.24,0,36.4,17.44,39.6,29.21l1.13,3.4l-48.84,48.83c-9.69,9.69-21.87,15.02-35.23,15.43L457.52,585.63z M424.28,500.57   c-7.57,7.57-11.58,16.82-11.58,26.73c0,11.32,4.8,21.86,14.26,31.32c9.59,9.59,19.71,14.26,30.94,14.26h0.76   c9.63,0,19.38-4.23,26.75-11.59l43.2-43.2c-2.38-5.2-9.65-16.96-26.55-16.96c-1.64,0-3.13-0.64-4.24-1.68   c0.1,1.28,0.15,2.57,0.15,3.87c0,12.93-4.81,24.29-14.29,33.77c-1.11,1.11-2.65,1.73-4.32,1.73c-1.59,0-3.16-0.56-4.44-1.58   l-0.09-0.07l-0.08-0.08c-2.23-2.23-2.29-6.07-0.15-8.75l0.07-0.09l0.08-0.08c7.19-7.19,10.83-15.55,10.83-24.85   c0-17.74-12.91-35.13-19.81-43.15L424.28,500.57z"></path>		<path class="st0" d="M465.9,445.08l3.05,3.05c1.14,1.14,27.03,26.64,27.03,55.19c0,12.18-4.57,23.22-13.7,32.35   c-0.76,0.76-1.81,1.14-2.9,1.14s-2.24-0.38-3.19-1.14c-1.52-1.52-1.52-4.19,0-6.09c7.61-7.61,11.42-16.37,11.42-26.26   c0-19.79-15.22-38.82-21.7-46.06l-43.01,41.87c-7.99,7.99-12.18,17.89-12.18,28.17c0,11.8,4.95,22.84,14.84,32.73   c9.9,9.9,20.55,14.84,32.35,14.84h0.76c10.28,0,20.55-4.57,28.17-12.18l44.15-44.15c-2.28-5.71-10.28-19.41-28.93-19.41   c-2.28,0-4.19-1.9-4.19-4.19s1.9-4.19,4.19-4.19c23.22,0,35.02,17.89,37.68,27.78l0.76,2.28l-47.96,47.96   c-9.52,9.52-21.31,14.46-33.88,14.84h-1.14l0,0c-13.7,0-26.64-5.71-38.06-17.13c-11.8-11.8-17.51-24.74-17.13-38.82   c0.38-12.56,5.33-24.74,14.84-33.88L465.9,445.08 M465.9,439.43l-2.83,2.83l-48.69,48.69c-9.92,9.54-15.62,22.54-16.04,36.61   c-0.41,15.17,5.74,29.22,18.3,41.77c12.14,12.14,25.9,18.3,40.89,18.3h1.77l0.02-0.02c13.67-0.54,26.13-6.07,36.06-16l47.96-47.96   l1.75-1.75l-0.78-2.35l-0.73-2.18c-3.38-12.36-17.18-30.63-41.51-30.63c-1.55,0-3.01,0.43-4.25,1.19   c-5.91-21.61-22.17-38.79-26-42.61l-0.04-0.04l-3.05-3.05L465.9,439.43L465.9,439.43z M425.7,501.98l39.94-38.89   c6.94,8.39,17.96,24.24,17.96,40.22c0,8.87-3.35,16.54-10.25,23.44l-0.16,0.16l-0.14,0.17c-2.82,3.52-2.69,8.43,0.3,11.42   l0.16,0.16l0.17,0.14c1.63,1.3,3.65,2.02,5.69,2.02c2.2,0,4.24-0.82,5.73-2.31c9.73-9.73,14.87-21.9,14.87-35.18   c0-0.15,0-0.3,0-0.46c0.67,0.18,1.37,0.27,2.09,0.27c14.53,0,21.41,9.31,24.13,14.55L484,559.88c-7,7-16.23,11.01-25.34,11.01   h-0.76c-10.67,0-20.33-4.47-29.53-13.67c-9.07-9.07-13.67-19.13-13.67-29.91C414.71,517.93,418.51,509.18,425.7,501.98   L425.7,501.98z"></path>	</g>	<g>		<path class="st0" d="M331.92,659.85c-1.74,0-3.36-0.63-4.46-1.73c-2.23-2.23-2.29-6.07-0.15-8.75l0.07-0.09l90.67-90.67   c1.11-1.11,2.65-1.73,4.32-1.73c1.59,0,3.16,0.56,4.44,1.58l0.09,0.07l0.08,0.08c2.23,2.23,2.29,6.07,0.15,8.75l-0.07,0.09   l-90.67,90.67C335.28,659.22,333.65,659.85,331.92,659.85L331.92,659.85z"></path>		<path class="st0" d="M422.36,558.89c1.09,0,2.24,0.38,3.19,1.14c1.52,1.52,1.52,4.19,0,6.09l-90.59,90.59   c-0.76,0.76-1.9,1.14-3.05,1.14c-1.14,0-2.28-0.38-3.05-1.14c-1.52-1.52-1.52-4.19,0-6.09l90.59-90.59   C420.22,559.27,421.27,558.89,422.36,558.89 M331.92,657.85L331.92,657.85L331.92,657.85 M422.36,554.89   c-2.2,0-4.24,0.82-5.73,2.31l-90.59,90.59l-0.16,0.16l-0.14,0.17c-2.82,3.52-2.69,8.43,0.3,11.42c1.47,1.47,3.61,2.31,5.87,2.31   s4.4-0.84,5.87-2.31l90.59-90.59l0.16-0.16l0.14-0.17c2.82-3.52,2.69-8.43-0.3-11.42l-0.16-0.16l-0.17-0.14   C426.42,555.61,424.4,554.89,422.36,554.89L422.36,554.89z"></path>	</g>	<g>		<path class="st0" d="M384.44,653c-1.94,0-3.62,0-5.72-0.42c-16.25-2.89-24.37-17.5-26.47-21.9l-0.05-0.1   c-1.58-3.15-0.24-6.68,3.18-8.39l0.13-0.06l0.13-0.04c0.77-0.26,1.56-0.39,2.33-0.39c2.48,0,4.65,1.37,5.8,3.67l0.21,0.42v0.08   c0.8,1.62,6.58,12.45,17.39,14.41c1,0.17,2.06,0.25,3.14,0.25c7.62,0,16.42-4.27,25.52-12.38c-6.76-6.13-13.24-10.09-19.28-11.76   l-0.1-0.03c-3.1-1.03-4.94-4.21-4.39-7.55l0.03-0.16l0.05-0.15c0.91-2.72,3.41-4.48,6.36-4.48c0.4,0,0.8,0.03,1.19,0.1l0.12,0.02   l0.12,0.03c9.78,2.85,19.55,9.31,29.05,19.19l4.43,4.43l-4.46,4.46C409.19,646.21,396.53,653,384.44,653z"></path>		<path class="st0" d="M392.71,606.02c0.29,0,0.58,0.02,0.87,0.07c9.14,2.67,18.65,8.75,28.17,18.65l3.05,3.05l-3.05,3.05   c-13.32,13.32-25.5,20.17-37.3,20.17l0,0c-1.9,0-3.42,0-5.33-0.38c-17.13-3.05-24.74-20.17-25.12-20.93   c-1.14-2.28,0-4.57,2.28-5.71c0.57-0.19,1.14-0.29,1.7-0.29c1.66,0,3.16,0.86,4.01,2.57c0,0.38,6.47,13.7,19.03,15.99   c1.14,0.19,2.3,0.28,3.5,0.28c8.4,0,18.14-4.7,28.47-14.37c-7.61-7.23-14.84-11.8-21.7-13.7c-2.28-0.76-3.42-3.05-3.05-5.33   C388.91,607.14,390.74,606.02,392.71,606.02 M392.71,602.02c-3.83,0-7.07,2.3-8.26,5.85l-0.1,0.3l-0.05,0.31   c-0.72,4.32,1.69,8.43,5.72,9.78l0.1,0.03l0.1,0.03c5.24,1.46,10.87,4.75,16.78,9.82c-8.11,6.81-15.82,10.39-22.48,10.39   c-0.96,0-1.9-0.08-2.81-0.23c-9.16-1.68-14.55-10.74-15.72-12.92v-0.07l-0.42-0.84c-1.5-2.99-4.33-4.78-7.59-4.78   c-0.99,0-1.98,0.17-2.96,0.49l-0.27,0.09l-0.25,0.13c-1.98,0.99-3.51,2.56-4.31,4.43c-0.92,2.14-0.83,4.5,0.24,6.65l0.03,0.07   c2.2,4.62,10.72,19.93,27.93,23.01c2.27,0.45,4.12,0.45,6.07,0.45c12.64,0,25.76-6.98,40.13-21.34l3.05-3.05l2.83-2.83l-2.83-2.83   l-3.02-3.02c-9.73-10.12-19.79-16.74-29.9-19.69l-0.23-0.07l-0.24-0.04C393.73,602.06,393.22,602.02,392.71,602.02L392.71,602.02z   "></path>	</g>	<g>		<path class="st0" d="M379.88,611.89c-0.87,0-1.61,0-2.79-0.59l-0.29-0.15l-0.06-0.06c-0.07-0.04-0.15-0.08-0.25-0.14   c-11.67-6.31-19.14-15.62-21.03-26.22c-2.45-13.89,4.4-28.84,20.37-44.41l4.44-4.44l4.46,4.46   c10.38,10.38,16.82,20.14,19.16,29.02c0.52,1.62,0.31,3.33-0.59,4.83c-0.83,1.38-2.16,2.43-3.75,2.96c-0.6,0.2-1.22,0.3-1.84,0.3   c-2.68,0-5.1-1.85-6.02-4.61l-0.03-0.1c-1.68-6.04-5.63-12.51-11.77-19.28c-9.69,10.82-13.77,20.45-12.13,28.63   c2.07,11.41,14.75,17.56,14.88,17.62c3.11,1.56,4.43,4.82,3.33,8.15l-0.07,0.21l-0.11,0.19   C384.37,610.6,382.28,611.89,379.88,611.89z"></path>		<path class="st0" d="M380.26,538.72l3.05,3.05c9.9,9.9,16.37,19.41,18.65,28.17c0.76,2.28-0.76,4.57-3.05,5.33   c-0.4,0.14-0.81,0.2-1.2,0.2c-1.84,0-3.5-1.36-4.12-3.24c-1.9-6.85-6.47-14.08-13.7-21.7c-11.04,11.8-15.99,22.46-14.08,31.97   c2.28,12.56,15.99,19.03,15.99,19.03c2.28,1.14,3.05,3.42,2.28,5.71c-1.14,1.91-2.67,2.67-4.19,2.67l0,0c-0.76,0-1.14,0-1.9-0.38   c-0.38-0.38-17.51-7.99-20.55-25.12c-2.28-12.94,4.19-27.4,19.79-42.63L380.26,538.72 M380.26,533.06l-2.83,2.83l-3.05,3.05   c-16.43,16.03-23.48,31.57-20.9,46.15c1.99,11.21,9.82,21.03,22.04,27.63l0.08,0.08l0.58,0.29c1.49,0.74,2.51,0.8,3.69,0.8   c3.13,0,5.84-1.64,7.62-4.61l0.23-0.38l0.14-0.42c1.42-4.24-0.35-8.58-4.29-10.55l-0.04-0.02l-0.04-0.02   c-0.11-0.05-11.88-5.8-13.76-16.13l-0.01-0.03l-0.01-0.03c-1.42-7.12,2-15.59,10.18-25.2c5.07,5.91,8.38,11.55,9.83,16.79   l0.03,0.1l0.03,0.1c1.19,3.58,4.37,5.98,7.92,5.98c0.84,0,1.67-0.14,2.47-0.4c2.04-0.68,3.75-2.04,4.83-3.83   c1.19-1.98,1.47-4.25,0.79-6.42c-2.44-9.21-9.05-19.26-19.66-29.87l-3.05-3.05L380.26,533.06L380.26,533.06z"></path>	</g></g><g>	<path class="st0" d="M401.45,274.92c-0.29,0-0.58-0.03-0.87-0.1c-1.45-0.33-2.58-1.46-2.93-2.91l-24.67-105.47  c-0.32-1.36,0.11-2.79,1.14-3.74c1.02-0.95,2.47-1.29,3.81-0.87c10.7,3.31,21.71,6.26,32.73,8.79c20.63,4.74,41.3,8.01,61.45,9.75  c1.44,0.13,2.69,1.03,3.26,2.36c0.56,1.33,0.35,2.86-0.56,3.98l-70.33,86.77C403.73,274.4,402.61,274.92,401.45,274.92  L401.45,274.92z M382.11,171.23l21.32,91.15l60.74-74.93c-18.19-1.88-36.75-4.98-55.25-9.23  C399.92,176.15,390.94,173.81,382.11,171.23L382.11,171.23z"></path>	<path class="st0" d="M258.03,203.09c-0.76,0-1.51-0.22-2.17-0.66c-1.24-0.83-1.9-2.29-1.7-3.76l11.59-86.3  c0.18-1.38,1.09-2.56,2.38-3.09s2.76-0.33,3.87,0.52c18.49,14.28,42.24,27.63,68.69,38.62c1.37,0.57,2.3,1.86,2.4,3.34  s-0.65,2.89-1.93,3.63l-81.17,47.16C259.38,202.91,258.7,203.08,258.03,203.09L258.03,203.09z M272.59,119.99l-9.64,71.82  l67.56-39.26C308.75,142.99,288.96,131.87,272.59,119.99L272.59,119.99z"></path>	<path class="st0" d="M559.42,268.49c-1.29,0-2.5-0.64-3.23-1.72l-53.18-78.9c-0.8-1.19-0.88-2.73-0.21-4.01  c0.67-1.27,1.99-2.07,3.43-2.08c31.8-0.13,60.2-4.62,82.12-12.99c1.4-0.54,3-0.22,4.09,0.82c1.09,1.04,1.48,2.61,1.01,4.04  l-30.32,92.15c-0.47,1.41-1.7,2.44-3.17,2.64C559.77,268.48,559.6,268.49,559.42,268.49L559.42,268.49z M513.51,189.49l44.69,66.32  l25.36-77.05C563.79,185.16,539.86,188.83,513.51,189.49L513.51,189.49z"></path>	<path class="st0" d="M504.77,189.56c-30,0-62.72-3.73-95.85-11.33c-74.08-17.01-139.13-51.14-169.75-89.09  c-1.35-1.68-1.09-4.13,0.59-5.49c1.68-1.35,4.13-1.09,5.49,0.59c29.58,36.65,92.97,69.75,165.44,86.38  c80.89,18.57,158.86,13.75,198.64-12.28c1.8-1.18,4.22-0.67,5.4,1.13c1.18,1.8,0.68,4.22-1.13,5.4  c-24.88,16.29-63.77,24.68-108.8,24.68L504.77,189.56z"></path>	<path class="st0" d="M193.76,210.12c-10.09,0-18.3-8.21-18.3-18.3s8.21-18.31,18.3-18.31s18.31,8.21,18.31,18.31  C212.07,201.91,203.85,210.12,193.76,210.12L193.76,210.12z M193.76,181.31c-5.79,0-10.5,4.71-10.5,10.5s4.71,10.5,10.5,10.5  s10.5-4.71,10.5-10.5C204.27,186.02,199.55,181.31,193.76,181.31L193.76,181.31z"></path>	<path class="st0" d="M577.83,121.42c-10.09,0-18.31-8.21-18.31-18.31c0-10.09,8.21-18.3,18.31-18.3c10.09,0,18.3,8.21,18.3,18.3  C596.14,113.21,587.92,121.42,577.83,121.42z M577.83,92.62c-5.79,0-10.5,4.71-10.5,10.5s4.71,10.5,10.5,10.5s10.5-4.71,10.5-10.5  C588.34,97.33,583.62,92.62,577.83,92.62z"></path>	<path class="st0" d="M625.7,274.92c-0.49,0-0.99-0.13-1.44-0.4l-18.92-11.35c-1.93-1.16-3.14-3.28-3.14-5.54s1.2-4.38,3.14-5.54  l17.15-10.29c0.26-0.15,0.41-0.43,0.41-0.73v-0.24c0-0.27-0.13-0.52-0.34-0.68l-13.63-10.22c-1.62-1.21-2.59-3.15-2.59-5.17  c0-2.51,1.37-4.73,3.57-5.83l10.02-5.01c1.83-0.91,2.96-2.75,2.96-4.79v-3.24c0-1.55,1.25-2.8,2.8-2.8s2.8,1.25,2.8,2.8v3.24  c0,4.18-2.32,7.94-6.06,9.8l-10.03,5.01c-0.29,0.15-0.47,0.44-0.47,0.76c0,0.32,0.13,0.58,0.34,0.73l13.63,10.23  c1.62,1.21,2.59,3.15,2.59,5.17v0.24c0,2.25-1.2,4.38-3.13,5.54l-17.15,10.29c-0.26,0.15-0.41,0.43-0.41,0.73  c0,0.3,0.16,0.58,0.42,0.73l18.92,11.35c1.33,0.8,1.76,2.52,0.96,3.84C627.58,274.44,626.66,274.92,625.7,274.92L625.7,274.92z"></path>	<path class="st0" d="M505.82,140.63c-0.68,0-1.38-0.18-2-0.56l-26.34-15.8c-2.69-1.62-4.36-4.57-4.36-7.71s1.67-6.09,4.36-7.71  l23.87-14.32c0.36-0.21,0.57-0.6,0.57-1.02v-0.34c0-0.37-0.18-0.73-0.47-0.95L482.47,78c-2.25-1.69-3.6-4.38-3.6-7.19  c0-3.5,1.91-6.58,4.97-8.11l13.95-6.98c1.93-0.96,4.27-0.18,5.23,1.74c0.96,1.93,0.18,4.27-1.74,5.23l-13.96,6.98  c-0.41,0.2-0.66,0.61-0.66,1.06s0.18,0.8,0.47,1.02L506.12,86c2.25,1.69,3.59,4.38,3.59,7.19v0.34c0,3.14-1.67,6.09-4.36,7.71  l-23.87,14.32c-0.36,0.21-0.57,0.6-0.57,1.02c0,0.41,0.22,0.8,0.57,1.02l26.33,15.8c1.85,1.11,2.45,3.5,1.34,5.35  C508.44,139.95,507.14,140.63,505.82,140.63L505.82,140.63z"></path>	<path class="st0" d="M197.56,116.61c5.28-0.53,9.98,3.32,10.51,8.6c0.53,5.28-3.32,9.98-8.6,10.51s-9.98-3.32-10.51-8.6  C188.43,121.84,192.28,117.14,197.56,116.61z"></path>	<path class="st0" d="M466.45,242.39c5.28-0.53,9.98,3.32,10.51,8.6c0.53,5.28-3.32,9.98-8.6,10.51s-9.98-3.32-10.51-8.6  C457.33,247.62,461.18,242.92,466.45,242.39L466.45,242.39z"></path>	<path class="st0" d="M341.63,79.16c5.28-0.53,9.98,3.32,10.51,8.6s-3.32,9.98-8.6,10.51s-9.98-3.32-10.51-8.6  C332.51,84.39,336.35,79.69,341.63,79.16L341.63,79.16z"></path>	<path class="st0" d="M390.6,100.23l19.11-1.91l1.91,19.11l-19.11,1.91L390.6,100.23z"></path></g></svg>