<svg xmlns="http://www.w3.org/2000/svg" xmlns:xlink="http://www.w3.org/1999/xlink" id="Isolation_Mode" x="0px" y="0px" viewBox="0 0 700 700" style="enable-background:new 0 0 700 700;" xml:space="preserve"><style type="text/css">	.st0{fill:#4F646E;}</style><path class="st0" d="M560,122.5h8.75V105H560c-14.47,0-26.25,11.78-26.25,26.25S545.53,157.5,560,157.5 c24.12,0,43.75-19.62,43.75-43.75S584.12,70,560,70c-29.94,0-56.41,19.08-65.88,47.48l-25.64,76.91c-0.77-4.02-1.62-8.02-2.61-11.99 l-3.46-13.89l3.4-9.07c4.43-11.86,6.69-24.3,6.69-36.95c0-24.12-19.62-43.75-43.75-43.75c-14.47,0-26.25,11.78-26.25,26.25 s11.78,26.25,26.25,26.25h8.75v-17.5h-8.75c-4.83,0-8.75-3.93-8.75-8.75s3.92-8.75,8.75-8.75c14.47,0,26.25,11.78,26.25,26.25 c0,10.55-1.88,20.92-5.59,30.81l-6.93,18.48c-15.79,9.05-30.12,20.63-42.39,34.09c-1.13-5.07-2.58-10.06-4.52-14.93L380,152.04 l-25.9,20.72c-7.12,5.7-13.3,12.29-18.46,19.57c-3.85-11.84-9.59-23.03-17.14-33.08l-12.25-16.33l-5.75,7.66l4.04-14.78l12.69,6.34 c8.64,4.32,18.32,6.61,27.98,6.61c16.48,0,32.61-6.68,44.25-18.33l9.29-9.29l-20.57-13.71c-17.09-11.38-38.99-13.78-58.22-7.44 c4.7-7.61,10.17-14.73,16.34-21.25l13.71,0c40.21,0,61.25-30.81,61.25-61.25V8.75h-8.75c-66.56,0-76.84,44.22-78.43,57.46 c-17.07,17.84-29.52,39.71-36.03,63.55l-12.62,46.29l-28-14l-3.73,18.65l-6.73-24.68c-1.66-6.09-3.72-12.06-6.13-17.86l4.17-0.74 c26.07-4.34,45-26.68,45-53.11c0-4.4-0.55-8.79-1.62-13.06l-10.27-41.07L239.73,47.2C221.4,58.2,210,78.33,210,99.72v3.12 c-2.85-3.6-5.89-7.06-9.07-10.39C199.33,79.21,189.06,35,122.5,35h-8.75v8.75c0,30.44,21.03,61.25,61.25,61.25h13.71 c6.18,6.52,11.65,13.64,16.34,21.23c-19.23-6.34-41.13-3.95-58.22,7.44l-20.57,13.71l9.29,9.29C147.18,168.32,163.32,175,179.8,175 c9.66,0,19.34-2.29,27.98-6.61l12.69-6.34l11.66,42.77l-32.78-5.46l6.58,39.46c-7.23-3.94-14.89-7.09-22.93-9.39l-16.75-4.78v41.31 c0,18.63,4.6,37.58,12.75,53.74c-4.77,1.18-9.94,2.64-15.52,4.5l-9.57,3.2l16.25,32.5c2.08,4.16,4.68,7.91,7.54,11.4 c-8.78,2.62-14.95,5.68-15.36,5.88l-8.45,4.23l12.41,20.67c13.11,21.86,37.09,35.44,62.57,35.44c5.84,0,11.62-0.94,16.96-2.72 l10.8-3.3l2.8,28c1.79,17.82,10.73,35.22,24.02,47.96c-7.4,6.41-12.18,15.77-12.18,26.31c0,9.65,7.85,17.5,17.5,17.5h122.5 c9.65,0,17.5-7.85,17.5-17.5c0-10.53-4.78-19.89-12.17-26.31c13.29-12.75,22.23-30.14,24.02-47.96l2.48-24.8 c2.56,1.08,5.22,1.95,8.05,2.4c1.85,0.29,3.69,0.43,5.54,0.43c7.33,0,14.45-2.3,20.5-6.7c5.86-4.26,10-10,12.3-16.34l8.24,2.75 c5.56,1.86,11.33,2.79,17.18,2.79c25.48,0,49.45-13.58,62.56-35.43l12.41-20.68l-8.45-4.23c-0.4-0.2-6.59-3.25-15.36-5.88 c2.85-3.49,5.45-7.23,7.54-11.4l16.25-32.5l-9.57-3.2c-14.64-4.88-26.7-7.16-34.89-8.23l7.77-46.6l-33,5.5l6.75-40.5l-48.61,8.1 c-0.58,0.1-1.12,0.3-1.69,0.42l34.12-102.35C517.8,101.77,537.6,87.5,560,87.5c14.47,0,26.25,11.78,26.25,26.25S574.47,140,560,140 c-4.83,0-8.75-3.93-8.75-8.75S555.17,122.5,560,122.5L560,122.5z M227.5,99.72c0-15.28,8.14-29.65,21.25-37.52l8.14-4.88l4.54,18.16 c0.71,2.89,1.07,5.85,1.07,8.81c0,17.84-12.77,32.92-30.46,35.87l-4.54,0.8L227.5,99.72z M403.52,229.06 c12.35-16.46,28.02-30.47,45.73-40.96c3.68,15.15,5.55,30.7,5.7,46.29c-3.12,2.11-6.12,4.42-8.83,7.13 c-7.9,7.9-13.24,17.67-15.73,28.29l-3.61-18.02l-25.9,6.46c-1.38,0.35-2.7,0.89-4.05,1.31c3.31-9.27,5.18-19.02,5.54-28.98 L403.52,229.06z M459.56,344.24c1.05-1.58,1.97-3.23,2.77-4.93c1.48-0.97,3.05-1.8,4.76-2.36c4.44-1.45,9.19-1.07,13.34,1.05 c4.17,2.12,7.25,5.74,8.7,10.18c1.45,4.45,1.07,9.19-1.05,13.35c-2.12,4.16-5.74,7.25-10.2,8.7c-3.8,1.24-7.83,1.31-11.66,0.23 l-9.17-2.57c0.01-0.26,0.08-0.52,0.08-0.78c0-4.95-1.45-9.52-3.84-13.48L459.56,344.24z M291.2,240.64l6.3-7.88l13.5,16.87 c8.22,10.27,12.75,23.19,12.75,36.36c0,11.38-3.3,22.41-9.54,31.91l-3.45,4.16c-1.25-2.32-2.77-4.48-4.52-6.48l0-35.58h-17.5v23.04 l-17.29-10.38C272.48,273.78,279.35,255.46,291.2,240.64L291.2,240.64z M421.13,402.47c0.08,1.9,0.3,3.77,0.66,5.62 c-0.63,1.66-1.4,3.27-2.45,4.71c-5.68,7.81-16.65,9.54-24.45,3.87c-3.79-2.75-6.27-6.8-7-11.42c-0.73-4.61,0.38-9.24,3.12-13.03 c2.34-3.23,5.55-5.66,9.3-7.05l8.89-3.29c2.83,4.14,6.8,7.44,11.47,9.41L421.13,402.47z M297.5,376.26c-4.83,0-8.75-3.93-8.75-8.75 s3.92-8.75,8.75-8.75s8.75,3.93,8.75,8.75S302.33,376.26,297.5,376.26z M289.01,323.61c5.24,3.15,8.5,8.9,8.5,15.02v2.63 c-7.64,0-14.46,3.33-19.27,8.57c-4.35-3.3-6.98-8.36-6.98-13.86v-23L289.01,323.61z M297.5,393.76c7.64,0,14.46-3.33,19.27-8.57 c4.35,3.3,6.98,8.36,6.98,13.86v23L306,411.4c-5.24-3.14-8.5-8.89-8.5-15.01L297.5,393.76z M326.39,367.51h-2.64 c0-7.64-3.33-14.46-8.57-19.27c3.31-4.35,8.36-6.98,13.86-6.98h23l-10.65,17.75C338.25,364.25,332.5,367.51,326.39,367.51 L326.39,367.51z M372.64,348.19c1.45-4.45,4.53-8.06,8.7-10.18c4.16-2.12,8.91-2.49,13.35-1.05c3.79,1.23,7.11,3.54,9.57,6.67 l5.94,7.52c-2.99,3.86-4.88,8.55-5.33,13.68l-10.63,3.93c-1.79,0.66-3.5,1.45-5.14,2.36c-1.76-0.09-3.54-0.32-5.23-0.88 c-4.45-1.45-8.06-4.53-10.18-8.7C371.56,357.38,371.19,352.63,372.64,348.19L372.64,348.19z M396.28,319.47 c-7.74-1.6-15.74-0.7-22.89,2.94c-0.75,0.39-1.39,0.92-2.12,1.35H361.2l1.53-6.12c2.56-10.25,7.87-19.61,15.33-27.07 c7.47-7.46,16.83-12.77,27.06-15.32l8.1-2.02l3.62,18.13C405.68,296.27,397.7,306.87,396.28,319.47L396.28,319.47z M345.77,313.39 l-2.59,10.37h-12.25c6.64-11.5,10.32-24.4,10.32-37.77c0-0.97-0.09-1.93-0.12-2.89l16.12-21.51l8.35,16.7 C355.95,287.98,349.08,300.12,345.77,313.39L345.77,313.39z M236.35,294.73c6.32,1.06,12.23,3.61,17.4,7.32v14.11l-12.65-8.43 l-9.7,14.56l22.43,14.95c0.17,4.45,1.16,8.75,2.89,12.72c-10.99-0.11-21.3-4.41-29.09-12.2c-6.2-6.19-10.23-14.03-11.67-22.67 l-4.07-24.45L236.35,294.73z M253.6,376c3.15-5.24,8.9-8.5,15.01-8.5h2.64c0,7.64,3.33,14.46,8.57,19.27 c-3.31,4.35-8.36,6.98-13.86,6.98h-23L253.6,376z M276.83,457.75l-4.71-47.09c3.42-0.61,6.71-1.69,9.77-3.25 c2.62,7.82,7.89,14.66,15.12,19.02l44.25,26.55v-53.91c0-5.64-1.38-11.06-3.86-15.92c7.83-2.62,14.67-7.89,19-15.12l0.67-1.12 c0.36,0.86,0.59,1.75,1.02,2.58c3.65,7.16,9.58,12.57,16.79,15.83c-3.91,6.88-5.52,14.74-4.27,22.67c1.46,9.24,6.43,17.34,14,22.84 c6.2,4.51,13.39,6.68,20.53,6.68c7.42,0,14.68-2.52,20.78-7.03l-2.73,27.27c-0.2,2.01-0.54,4.02-0.97,6.01l-144.41,0.01 C277.36,461.76,277.03,459.76,276.83,457.75L276.83,457.75z M430.89,375.86c-4.83,0-8.75-3.93-8.75-8.75s3.92-8.75,8.75-8.75 s8.75,3.93,8.75,8.75S435.71,375.86,430.89,375.86z M445,334.54l-5.3,7.95c-2.77-1-5.7-1.63-8.81-1.63c-2.04,0-4.01,0.29-5.91,0.73 l-6.97-8.82c-1.17-1.49-2.46-2.87-3.82-4.15c-0.46-1.71-0.78-3.46-0.78-5.26c0-9.65,7.85-17.5,17.5-17.5s17.5,7.85,17.5,17.5 C448.39,327.34,447.21,331.21,445,334.54L445,334.54z M365.03,186.45l7.47-5.98l6.8,17c3.78,9.44,5.69,19.38,5.69,29.55 c0,12.15-2.81,23.98-8.08,34.78l-16.68-33.36l-23.66,31.55c-0.8-2.19-1.71-4.33-2.71-6.44l2.39-16.74 C339.1,216.89,349.33,199,365.03,186.45L365.03,186.45z M323.08,217c-1.65,4.88-2.85,9.92-3.72,15.08l-21.86-27.33l-7.8,9.76 c2.09-15.16,7.74-29.79,16.55-42.33C315.59,185.45,321.31,200.87,323.08,217L323.08,217z M368.45,122l2.12,1.43 c-13.16,8.93-31.21,10.24-45.54,3.08l-10.13-5.07C330.98,111.2,352.59,111.42,368.45,122z M392.88,26.64 c-3.41,18.01-17.16,34.62-42.88,34.62h-7.4C345.81,49.45,356.6,29.62,392.88,26.64L392.88,26.64z M275.88,195.87 c-2.02,6.96-3.44,14.1-4.11,21.32c-4.91-3.39-10.27-6.01-15.98-7.78l4.29-21.44L275.88,195.87z M175,87.52 c-25.73,0-39.47-16.62-42.89-34.62c36.38,2.95,47.13,22.66,50.32,34.62H175z M199.95,152.75c-14.32,7.16-32.38,5.84-45.54-3.08 l2.12-1.43c15.87-10.58,37.47-10.8,53.54-0.56L199.95,152.75z M245.1,224.73c8.63,1.45,16.48,5.47,22.67,11.67 c1.02,1.02,1.79,2.29,2.7,3.41c-7.44,11.85-12.58,25.05-15.02,38.82c-7.16-1.86-13.75-5.55-19.06-10.86 c-6.2-6.19-10.23-14.03-11.67-22.67l-4.07-24.44L245.1,224.73z M183.75,265.97v-17.92c10.66,3.75,20.41,9.36,29.16,16.62 c1.64,3.31,3.63,6.44,5.89,9.4l-28.2-4.7l7.77,46.6c-0.45,0.06-0.98,0.15-1.45,0.21C188.54,301.62,183.75,283.65,183.75,265.97 L183.75,265.97z M203.47,333c2.91,6.31,6.79,12.14,11.8,17.16c7.02,7.02,15.49,12.06,24.73,14.84c-0.47,0.66-0.97,1.3-1.39,2.01 l-5.56,9.26h-8.1c-16.67,0-31.67-9.27-39.13-24.18l-7.11-14.22C189.5,334.89,198.05,333.58,203.47,333L203.47,333z M240.49,418.12 c-3.75,1.25-7.67,1.89-11.63,1.89c-19.37,0-37.6-10.32-47.57-26.93l-2.29-3.82c4.26-1.47,9.7-2.96,15.38-3.72 c8.46,4.88,18.09,7.68,28.25,8.06l-10.59,17.66h42.54l0.25,2.48L240.49,418.12z M288.75,533.76c0-9.65,7.85-17.5,17.5-17.5h87.5 c9.65,0,17.5,7.85,17.51,17.5H288.75z M393.75,498.76h-87.5c-1.87,0-3.68,0.27-5.48,0.55c-6.48-4.89-11.97-11.08-16.05-18.05H415.3 c-4.09,6.97-9.57,13.17-16.05,18.05C397.44,499.03,395.64,498.76,393.75,498.76L393.75,498.76z M466.89,416.67 c-3.78,2.74-8.41,3.88-13.02,3.12c-4.62-0.73-8.67-3.22-11.43-7c-2.34-3.22-3.67-7.04-3.83-11.02l-0.39-9.57 c4.88-1.43,9.12-4.19,12.37-7.93l10.89,3.06c1.82,0.51,3.67,0.86,5.52,1.09c1.4,1.12,2.7,2.36,3.75,3.82 C476.43,400.03,474.7,411,466.89,416.67L466.89,416.67z M562.45,375.58c-9.96,16.62-28.18,26.93-47.55,26.93 c-3.95,0-7.87-0.64-11.63-1.89l-12.32-4.11c-0.66-3.88-2.03-7.64-4.06-11.2c4.71-2.12,8.84-5.16,12.15-9.05h19.76 c11.02,0,21.45-2.98,30.55-8.21c5.69,0.76,11.12,2.25,15.38,3.72L562.45,375.58z M557.94,334.58 c-7.46,14.92-22.46,24.18-39.13,24.18h-11.83c0.61-4.08,0.48-8.21-0.38-12.3c8.18-2.93,15.65-7.57,21.89-13.81 c5.02-5.02,8.9-10.85,11.8-17.16c5.41,0.59,13.96,1.9,24.75,4.86L557.94,334.58z M527.78,297.6c-1.45,8.64-5.48,16.48-11.67,22.67 c-4.86,4.86-10.77,8.33-17.25,10.32c-2.91-3.32-6.42-6.12-10.47-8.18c-5-2.55-10.43-3.68-15.88-3.67v-0.3 c0-11.16,4.35-21.66,12.23-29.54c6.2-6.2,14.04-10.23,22.67-11.67l24.45-4.08L527.78,297.6z M481.16,242.23l24.45-4.08l-3.73,22.47 c-11.18,2.4-21.37,7.76-29.5,15.9c-6.96,6.96-11.96,15.34-14.77,24.49c-3.12-3.72-6.95-6.78-11.35-8.94v-8.63 c0-11.16,4.35-21.66,12.23-29.54C464.68,247.71,472.53,243.68,481.16,242.23L481.16,242.23z"></path></svg>