<svg xmlns="http://www.w3.org/2000/svg" xmlns:xlink="http://www.w3.org/1999/xlink" id="Isolation_Mode" x="0px" y="0px" viewBox="0 0 700 700" style="enable-background:new 0 0 700 700;" xml:space="preserve"><style type="text/css">	.st0{fill:#5B574B;}</style><g>	<path class="st0" d="M303.33,371.09c5.19,0,9.42-4.22,9.42-9.42v-23.33c0-5.19-4.23-9.42-9.42-9.42s-9.42,4.23-9.42,9.42v23.33  C293.91,366.86,298.14,371.09,303.33,371.09z"></path>	<path class="st0" d="M396.66,371.09c5.19,0,9.42-4.22,9.42-9.42v-23.33c0-5.19-4.22-9.42-9.42-9.42s-9.42,4.23-9.42,9.42v23.33  C387.24,366.86,391.47,371.09,396.66,371.09z"></path>	<circle class="st0" cx="244.99" cy="105" r="21.08"></circle>	<path class="st0" d="M525.02,522.76c5.19,0,9.42-4.22,9.42-9.42v-37.25h48.92c5.19,0,9.42-4.22,9.42-9.42V280  c0-5.19-4.22-9.42-9.42-9.42h-76.7l26.44-44.08c1.75-2.9,1.8-6.53,0.12-9.48c-1.67-2.94-4.8-4.77-8.19-4.77h-60.58v-74.5h13.92  c18.06,0,32.75-14.69,32.75-32.75V70c0-5.19-4.22-9.42-9.42-9.42s-9.42,4.23-9.42,9.42v35c0,7.67-6.24,13.92-13.92,13.92h-13.92  V46.67c0-5.19-4.22-9.42-9.42-9.42s-9.42,4.23-9.42,9.42v95.53l-2.27,0.05h-11.67c-7.67,0-13.92-6.24-13.92-13.92V105  c0-5.19-4.22-9.42-9.42-9.42s-9.42,4.22-9.42,9.42v23.33c0,18.06,14.69,32.75,32.75,32.75h13.92v51.17h-60.58  c-3.39,0-6.53,1.83-8.19,4.77c-1.68,2.96-1.63,6.59,0.12,9.48l26.44,44.09H296.63l26.44-44.08c1.75-2.9,1.8-6.53,0.12-9.48  c-1.67-2.94-4.8-4.77-8.19-4.77h-60.58v-41.06l1.39-0.57c4.55-1.88,8.55-4.9,11.56-8.75l0.78-1l1.26,0.15  c8.57,1.06,17.36-1.98,23.5-8.11c6.13-6.14,9.16-14.93,8.11-23.51l-0.15-1.26l1-0.78c6.82-5.32,10.89-13.68,10.89-22.35  s-4.07-17.03-10.89-22.36l-1-0.78l0.15-1.26c1.05-8.57-1.98-17.36-8.11-23.5c-6.14-6.13-14.93-9.16-23.51-8.11l-1.26,0.15l-0.78-1  c-5.33-6.82-13.68-10.89-22.35-10.89c-8.67,0-17.03,4.06-22.35,10.87l-0.78,1l-1.26-0.15c-8.59-1.05-17.38,2-23.51,8.12  c-6.13,6.14-9.16,14.93-8.11,23.51l0.15,1.26l-1,0.78c-6.82,5.33-10.89,13.68-10.89,22.35c0,8.67,4.07,17.03,10.89,22.36l1,0.78  l-0.15,1.26c-1.05,8.57,1.98,17.36,8.11,23.5c6.14,6.13,14.93,9.16,23.51,8.11l1.26-0.15l0.78,1c3.02,3.86,7.02,6.89,11.54,8.74  l1.4,0.57v41.07h-60.58c-3.39,0-6.53,1.83-8.19,4.77c-1.68,2.96-1.63,6.59,0.12,9.48l26.44,44.09h-76.7  c-5.19,0-9.42,4.23-9.42,9.42v186.67c0,5.19,4.23,9.42,9.42,9.42h48.92v37.25c0,5.19,4.23,9.42,9.42,9.42  c5.19,0,9.42-4.22,9.42-9.42v-37.25H515.6v37.25C515.6,518.54,519.83,522.76,525.02,522.76z M401.62,231.09h106.74l-23.7,39.5  h-59.34L401.62,231.09z M359.41,289.42h214.5v121.17h-214.5V289.42z M230.37,140.3c-2.94-1.22-6.26-0.88-8.88,0.9  c-3.28,2.22-7.94,1.54-11.09-1.62c-3.16-3.14-3.84-7.8-1.62-11.08c1.79-2.63,2.12-5.94,0.91-8.87c-1.21-2.94-3.8-5.05-6.92-5.66  c-3.87-0.73-6.69-4.51-6.69-8.97c0-4.46,2.81-8.24,6.69-8.98c3.12-0.6,5.71-2.72,6.91-5.65c1.22-2.94,0.88-6.26-0.9-8.88  c-2.22-3.28-1.54-7.94,1.62-11.09c3.14-3.16,7.8-3.84,11.08-1.62l0,0c2.63,1.79,5.94,2.12,8.87,0.9c2.94-1.21,5.05-3.8,5.66-6.93  c0.73-3.87,4.51-6.69,8.97-6.69c4.46,0,8.24,2.81,8.98,6.69c0.6,3.12,2.72,5.71,5.65,6.91c2.94,1.22,6.26,0.88,8.88-0.9  c3.28-2.22,7.94-1.54,11.09,1.62c3.16,3.14,3.84,7.8,1.62,11.08c-1.79,2.63-2.12,5.94-0.91,8.87c1.21,2.94,3.8,5.05,6.93,5.66  c3.87,0.73,6.69,4.51,6.69,8.97c0,4.46-2.81,8.24-6.69,8.98c-3.12,0.6-5.71,2.72-6.91,5.65c-1.22,2.94-0.88,6.26,0.9,8.88  c2.22,3.28,1.54,7.94-1.62,11.09c-3.14,3.16-7.8,3.84-11.08,1.62c-2.63-1.79-5.94-2.12-8.87-0.91c-2.94,1.21-5.05,3.8-5.66,6.93  c-0.73,3.87-4.51,6.69-8.97,6.69s-8.24-2.81-8.98-6.69C235.41,144.1,233.3,141.51,230.37,140.3z M191.62,231.09h106.74l-23.7,39.5  h-59.34L191.62,231.09z M126.08,289.42h214.5v121.17h-214.5V289.42z M126.08,457.25v-27.83h447.83v27.83H126.08z"></path></g></svg>