<svg xmlns="http://www.w3.org/2000/svg" xmlns:xlink="http://www.w3.org/1999/xlink" id="Isolation_Mode" x="0px" y="0px" viewBox="0 0 700 700" style="enable-background:new 0 0 700 700;" xml:space="preserve"><style type="text/css">	.st0{fill:#496161;}</style><path class="st0" d="M357.7,120.84c7.72,2.42,15.66,4.06,23.71,4.9h5.07c2.8,0.14,5.5-1.06,7.26-3.24c0,0,1.14-1.49,2.89-4.11 c4.62-6.64,8.49-13.77,11.55-21.26c7.56-15.55,8.2-33.57,1.75-49.61c-4.06-8.51-11.19-15.16-19.95-18.64 c-8.67-3.67-18.49-3.51-27.04,0.44c-4.94,2.51-9.06,6.36-11.9,11.11c-5.5-0.91-11.14-0.24-16.28,1.93 c-8.4,4.04-14.74,11.39-17.5,20.3c-2.88,9.03-2.26,18.8,1.75,27.39C327.02,105.29,341.06,116.47,357.7,120.84L357.7,120.84z  M333.64,68.34c1.37-4.37,4.56-7.94,8.75-9.8c1.21-0.52,2.53-0.76,3.85-0.7c2.48,0.11,4.94,0.46,7.35,1.05 c3.98,1.01,8.13-0.88,9.98-4.55c0.88-1.84,3.59-7.35,6.91-8.75c4.15-1.84,8.88-1.84,13.04,0c4.47,1.86,8.11,5.28,10.24,9.62 c4.42,11.62,3.69,24.57-2.01,35.61c-2.53,6.13-5.66,12-9.36,17.5c-6.57-0.69-13.05-2.07-19.34-4.11 c-12.09-2.79-22.43-10.58-28.44-21.44c-2.16-4.6-2.5-9.85-0.96-14.7L333.64,68.34z"></path><path class="st0" d="M494.64,138.25c0.83,0.89,1.71,1.74,2.62,2.54c1.62,1.43,3.71,2.2,5.86,2.19c0.55,0.08,1.11,0.08,1.66,0 l3.59-0.88c5.75-1.64,11.33-3.87,16.62-6.65c11.63-5.28,20.5-15.23,24.41-27.39c2.04-7,1.21-14.52-2.28-20.91 c-3.49-6.39-9.38-11.15-16.36-13.21c-3.7-0.92-7.58-0.92-11.28,0c-2.68-2.68-5.99-4.64-9.62-5.69c-7.08-1.71-14.55-0.55-20.77,3.24 c-6.22,3.79-10.68,9.89-12.4,16.97c-2.72,12.49-0.05,25.54,7.35,35.97C487.11,129.38,490.66,134.01,494.64,138.25L494.64,138.25z  M493.24,93.1c1.02-4.57,4.95-7.9,9.62-8.14h2.1c0.61,0,1.93,0.88,4.38,4.2l0,0c2.41,3.33,6.82,4.53,10.59,2.89 c3.76-1.66,5.34-1.66,5.95-1.49c2.51,0.86,4.57,2.68,5.74,5.05c1.17,2.38,1.34,5.12,0.47,7.63c-2.61,7.6-8.38,13.7-15.84,16.71 c-3.45,1.83-7.05,3.35-10.76,4.55c-2.47-2.92-4.73-6.02-6.74-9.27C494.05,108.88,492.06,100.92,493.24,93.1L493.24,93.1z"></path><path class="st0" d="M127.23,254.62c15.09-1.9,28.12-11.51,34.39-25.38v-0.7c9.92,4.3,20.6,6.56,31.41,6.65 c4.28,0,8.55-0.35,12.78-1.05c21.29-3.36,40.36-15.04,53.03-32.46c12.67-17.43,17.89-39.18,14.52-60.46 c-0.99-6.01-2.66-11.88-4.99-17.5c1.92-1.54,3.53-3.45,4.72-5.6c1.25-2.29,2.28-4.69,3.06-7.18c8.75-24.68-10.5-61.95-39.29-75.6 l0,0c-17.56-7.94-37.02-10.67-56.09-7.88c-35.96,4.81-65.19,20.82-82.43,45.06C79.98,98.34,74.9,132.99,83.39,174.99l1.49,10.94 c-6.36,8.93-9.02,19.96-7.44,30.8c1.41,10.62,6.62,20.36,14.67,27.44c8.04,7.07,18.37,11,29.08,11.06 C123.21,255.16,125.23,254.95,127.23,254.62L127.23,254.62z M245,191.36c-9.27,12.82-22.99,21.72-38.48,24.96 c-15.49,3.24-31.62,0.58-45.26-7.46c-2.27-66.32,38.06-71.4,73.59-75.86c6.48-0.88,12.34-1.66,17.5-2.71h0 c1.81,4.42,3.13,9.03,3.94,13.73C258.99,160.67,254.92,177.71,245,191.36L245,191.36z M105,232.05c-5.68-4.2-9.44-10.5-10.41-17.5 c-1-7.36,1.16-14.8,5.95-20.48c1.56-1.91,2.29-4.37,2.01-6.82l-1.93-15.31c-7.52-37.45-3.41-67.55,12.16-89.51 c17.38-21.91,43.09-35.6,70.96-37.8c4.03-0.57,8.09-0.86,12.16-0.88c11.62-0.12,23.12,2.33,33.69,7.18 c20.48,9.62,36.31,37.98,30.27,53.99v0.88c-0.39,1.27-0.92,2.51-1.57,3.67c-1.06,1-2.36,1.73-3.76,2.1 c-7.06,2.01-14.3,3.32-21.61,3.94c-34.82,4.38-92.93,11.55-89.25,95.2v3.76c0,2.98,0.44,6.12,0.79,9.36h0 c-4.15,7.33-11.51,12.29-19.86,13.39C117.64,238.18,110.58,236.32,105,232.05L105,232.05z"></path><path class="st0" d="M570.68,319.38c30.45-32.11,30.27-81.11,30.27-83.21c0-2.32-0.92-4.55-2.56-6.19s-3.87-2.56-6.19-2.56h-1.05 c6.1-15.97,9.38-32.88,9.71-49.96c0-2.32-0.92-4.55-2.56-6.19s-3.87-2.56-6.19-2.56c-26.89,0.45-53.07,8.72-75.34,23.8 c-3.12-3-6.85-5.3-10.94-6.74c2.45-4.2,3.53-9.06,3.09-13.91c-0.44-4.84-2.37-9.43-5.54-13.12c-3.71-3.11-8.28-5-13.1-5.42 c-4.82-0.42-9.65,0.64-13.85,3.06c-1.14-6.59-5.32-12.25-11.29-15.25c-5.97-3-13.01-3-18.98,0c-5.97,3.01-10.16,8.67-11.29,15.25 c-4.21-2.42-9.07-3.48-13.91-3.05c-4.84,0.44-9.42,2.36-13.13,5.5c-3.14,3.69-5.06,8.26-5.5,13.09c-0.44,4.82,0.63,9.67,3.05,13.86 c-4.08,1.44-7.81,3.74-10.94,6.74c-22.19-15.1-48.32-23.38-75.16-23.8c-1.23,0.01-2.45,0.25-3.59,0.7c-0.76,0.36-1.47,0.84-2.1,1.4 l-0.7,0.44h0c-0.82,0.8-1.47,1.75-1.92,2.8c-0.37,0.95-0.6,1.95-0.7,2.97c0.27,17.27,3.56,34.35,9.71,50.49h-1.05 c-4.83,0-8.75,3.92-8.75,8.75c0,2.1,0,51.1,30.19,83.21c-2.41,0.63-4.46,2.21-5.69,4.38c-1.6,2.99-1.33,6.64,0.7,9.36l63.35,85.4v0 c-17.26-3.21-35.07-1.45-51.36,5.07c-1.94-4.09-4.96-7.57-8.75-10.06l-50.84-29.05c2.27-5.34,4.46-11.2,6.48-17.5 c5.6-16.98-2.8-38.06-24.59-62.65h0c-9.1-10.23-18.9-19.82-29.31-28.7c-8.75-7.79-17.5-14.61-25.38-20.39 c-2.88-2.22-6.03-4.07-9.36-5.51h-1.14c-14.92-6.6-32.06-5.89-46.38,1.93c-14.16,7.32-23.76,21.18-25.64,37.01 c-0.35,2.29-0.53,4.6-0.53,6.91v109.55c0.23,7.34-1.72,14.59-5.6,20.83c-14.35,20.21-15.05,64.84-15.05,73.5v26.25 c0,4.83,3.92,8.75,8.75,8.75s8.75-3.92,8.75-8.75v-26.25c0-23.1,3.68-51.71,11.9-63.52v0c6.01-9.12,9.07-19.88,8.75-30.8v-57.57 l24.41,48.82c1.46,2.98,4.47,4.88,7.79,4.9c1.37-0.03,2.71-0.36,3.94-0.96l17.5-8.75l8.75,15.75c0.9,1.72,2.39,3.06,4.2,3.77 l43.75,18.81c-1,31.63,2.18,63.26,9.45,94.06l0.7,3.5c0.81,4.17,4.5,7.16,8.75,7.09h1.66c4.73-0.93,7.82-5.5,6.91-10.24l-0.7-3.59 c-6.49-27.3-9.87-55.24-10.06-83.3l40.25,18.38c5.18,2.31,11.01,2.7,16.45,1.1c5.44-1.6,10.12-5.09,13.22-9.85 c1.01-1.61,1.81-3.34,2.36-5.16c14.85-6.92,31.5-9,47.6-5.95c-1.79,0.55-3.55,1.23-5.25,2.01c-7.98,3.72-15.15,8.98-21.09,15.49 c-4.28,3.3-6.85,8.36-7,13.76c-0.15,5.4,2.13,10.59,6.21,14.13c4.08,3.54,9.54,5.06,14.87,4.14c9.13-0.32,18.09-2.62,26.25-6.74 l-12.25,44.71c-0.74,2.62-0.23,5.43,1.4,7.61c1.65,2.2,4.25,3.5,7,3.5h97.91c2.79,0.11,5.47-1.13,7.2-3.33 c1.73-2.2,2.3-5.09,1.55-7.78l-21.52-76.82l84.26-113.75c1.87-2.73,2.04-6.29,0.44-9.19C575.14,321.59,573.09,320.01,570.68,319.38 L570.68,319.38z M256.2,316.06c17.5,19.34,24.59,35,21.18,45.68c-1.57,4.9-3.32,9.54-5.07,13.82l-16.71-10.06h0 c1.98-1.04,3.48-2.79,4.2-4.9c0.69-2.22,0.53-4.62-0.44-6.73l-33.6-67.29l2.89,2.45C238.43,297.39,247.64,306.42,256.2,316.06 L256.2,316.06z M149.45,308.36v-13.04c0.02-5.83,1.58-11.55,4.53-16.58c2.95-5.03,7.18-9.18,12.27-12.04 c9.04-4.77,19.69-5.41,29.23-1.75l44.27,88.9l-3.24,1.57L203,372.14l-17.06,8.75L149.45,308.36z M331.71,437.51 c-1.65,2.66-5,3.7-7.88,2.45l-51.8-23.62l-46.38-20.12l-6.91-12.34l7.09-3.5l11.38-5.6c0.43,0.41,0.89,0.76,1.4,1.05l28.96,17.5 l4.2,2.54l57.66,32.9c1.99,1.17,3.22,3.29,3.24,5.6C332.64,435.47,332.31,436.56,331.71,437.51L331.71,437.51z M556.76,308.8 c-3.05,3.17-3.28,8.11-0.52,11.55c-16.22,1.75-32.16,5.54-47.43,11.29c-0.04-4.37-1.05-8.68-2.98-12.6 c4.72-1.22,8.94-3.88,12.08-7.61c3.14-3.73,5.03-8.35,5.42-13.21c-0.34-7.32-4.45-13.93-10.85-17.5c2.2-3.14,4.69-6.07,7.44-8.75 c16.25-14.51,36.68-23.49,58.36-25.64l4.81-0.52C581.52,260.23,576.18,289.28,556.76,308.8L556.76,308.8z M455.61,364.36 c-6.38-6.12-13.33-11.63-20.74-16.45c0.55-1.14,0.86-2.4,0.88-3.67v-2.19c0.09-0.7,0.09-1.4,0-2.1c-1.24-4.66-6.01-7.43-10.68-6.21 c-2.62,0.61-4.2,0-4.46,0s-0.7-1.66,0-3.94c1.01-3.84,3.07-7.33,5.95-10.06l0.88-0.79c2.34-2.65,2.86-6.45,1.31-9.62 c-1.58-3.38-5.03-5.48-8.75-5.34c-9.45,0-14.35-4.29-14.35-5.77c0-1.49,4.9-5.6,13.82-5.77h1.23v0c3.54,0.02,6.73-2.09,8.11-5.34 c1.38-3.25,0.66-7.01-1.81-9.54l-0.88-0.79c-6.39-6.56-6.82-13.04-5.77-14c0.57-0.43,1.31-0.59,2.01-0.44h0.52 c4.39,0.71,8.41,2.9,11.38,6.21c0.64,0.73,1.38,1.38,2.19,1.92c2.7,1.78,6.14,1.93,8.98,0.39c2.84-1.54,4.59-4.51,4.58-7.73 c0.04-0.38,0.04-0.76,0-1.14c0-8.75,4.38-13.91,5.77-13.91s5.77,5.07,5.77,15.05h0c-0.02,3.51,2.06,6.7,5.28,8.09 s6.96,0.72,9.51-1.7l0.88-0.96c3.05-3.24,7.07-5.39,11.46-6.12c0.77-0.24,1.59-0.24,2.36,0c1.05,1.05,0.52,7.61-5.69,13.91 l-0.88,0.79v0c-2.58,2.49-3.38,6.31-2.01,9.62c1.35,3.3,4.57,5.44,8.14,5.43h1.14c8.75,0,13.91,4.38,13.91,5.77 s-4.9,5.77-15.05,5.77c-3.54,0.13-6.64,2.38-7.88,5.69c-1.34,3.4-0.44,7.27,2.27,9.71c6.48,6.56,7,13.3,6.12,14.18s-2.19,0.7-4.55,0 h-1.66h-0.96h-1.57l-1.75,0.61v0c-0.46,0.18-0.87,0.45-1.22,0.79l-1.4,1.14h0c-0.37,0.37-0.69,0.78-0.96,1.23 c-0.35,0.51-0.62,1.07-0.79,1.66v0.7v0c-0.04,0.29-0.04,0.58,0,0.88v0.88v2.71c0.02,1.27,0.32,2.53,0.88,3.68 C469.43,352.45,462.23,358.08,455.61,364.36L455.61,364.36z M340.02,229.43c-4.34-8.95-7.51-18.42-9.45-28.18l26.86,26.86 c1.65,1.64,3.89,2.55,6.21,2.54c2.33,0.02,4.56-0.9,6.21-2.54c3.39-3.41,3.39-8.93,0-12.34L343,189.18 c18.16,3.15,35.02,11.47,48.56,23.97c9.3,9.75,16.21,21.52,20.21,34.39c-1.42,0.8-2.74,1.77-3.94,2.89 c-2.25,2.31-3.85,5.18-4.64,8.31C385.58,242.81,363.56,232.59,340.02,229.43L340.02,229.43z M455.61,217.53L455.61,217.53 c-4.35,0-8.27-2.62-9.94-6.64c-1.66-4.02-0.74-8.65,2.34-11.73s7.71-4,11.73-2.33c4.02,1.66,6.64,5.59,6.64,9.94 C466.38,212.71,461.56,217.53,455.61,217.53L455.61,217.53z M571.2,229.43L571.2,229.43c-8.42,1.38-16.7,3.48-24.76,6.3l12.86-12.86 c3.39-3.41,3.39-8.93,0-12.34c-1.64-1.66-3.88-2.59-6.21-2.59c-2.33,0-4.57,0.93-6.21,2.59l-13.12,13.21 c-1.68,1.64-2.63,3.9-2.63,6.25c0,2.36,0.95,4.61,2.63,6.26c1.48,1.39,3.4,2.23,5.43,2.36c-11.49,4.72-22,11.54-30.98,20.13 c-0.84-3.08-2.43-5.91-4.64-8.23c-1.21-1.14-2.56-2.11-4.02-2.89c4.05-12.89,11-24.68,20.3-34.48 c19.34-19.34,48.48-24.68,63.18-26.25C581.62,201.66,577.62,216.06,571.2,229.43L571.2,229.43z M419.13,201.25 c3.93,0.6,7.8-1.38,9.62-4.9c1.4-2.8,1.2-6.14-0.52-8.75c-0.57-0.69-1.18-1.33-1.84-1.93c-6.3-6.56-6.82-13.04-5.86-14 c0.96-0.96,7.52-0.7,14.18,5.95c2.33,2.59,5.97,3.55,9.28,2.45c3.72-1.3,6.21-4.81,6.21-8.75c0-9.27,4.38-14.44,5.77-14.44 s5.86,5.16,5.86,13.56c-0.04,0.52-0.04,1.05,0,1.57c-0.17,4,2.39,7.6,6.21,8.75c3.37,1.02,7.03-0.08,9.27-2.8 c6.65-6.65,13.21-7,14.18-6.04c0.96,0.96,0.52,7.52-5.86,14.09c-0.66,0.6-1.27,1.24-1.84,1.93c-1.57,2.71-1.57,6.04,0,8.75 c1.68,2.9,4.79,4.68,8.14,4.64c4.43-0.21,8.8,1.05,12.43,3.59c-10.62,11.88-18.51,25.95-23.1,41.21c-1.78,0.44-3.51,1.06-5.16,1.84 c-2.04-6.04-6.05-11.21-11.38-14.7c8.45-2.99,14.96-9.81,17.58-18.38c2.62-8.57,1.02-17.87-4.32-25.07 c-5.33-7.2-13.76-11.45-22.71-11.45s-17.39,4.25-22.71,11.45s-6.93,16.5-4.32,25.07c2.62,8.57,9.14,15.39,17.58,18.38 c-5.33,3.5-9.33,8.67-11.38,14.7c-1.66-0.78-3.39-1.4-5.16-1.84c-4.29-15.31-11.87-29.5-22.22-41.56 C410.59,202.14,414.84,200.97,419.13,201.25L419.13,201.25z M333.2,246.4c21.69,2.18,42.12,11.19,58.36,25.73 c2.71,2.71,5.2,5.64,7.44,8.75c-6.43,3.54-10.57,10.16-10.94,17.5c0.39,4.85,2.29,9.45,5.43,13.17c3.14,3.72,7.36,6.36,12.07,7.57 c-1.04,2.21-1.82,4.53-2.36,6.91c-0.44,1.87-0.68,3.77-0.7,5.69c-15.25-5.67-31.16-9.43-47.34-11.2c2.75-3.43,2.53-8.38-0.53-11.55 c-19.34-19.51-24.68-48.56-26.25-63.26L333.2,246.4z M449.14,382.46c14,14.49,22.54,33.38,24.15,53.46h-39.73l-72.1-97.3 C394.78,342.99,425.66,358.43,449.14,382.46L449.14,382.46z M381.25,467.77c4.37-6.27,10.44-11.16,17.5-14.09 c5.5-2.41,11.54-3.32,17.5-2.62c-3.17,4.97-7.57,9.04-12.78,11.81C396.71,466.67,388.98,468.37,381.25,467.77L381.25,467.77z  M418.08,517.12l17.5-63.7h39.55l17.5,63.7H418.08z M488.78,420.87c-3.59-16.04-10.87-31.02-21.26-43.75 c22.93-20.79,51.59-34.18,82.25-38.41L488.78,420.87z"></path><path class="st0" d="M483.88,298.2c0-7.5-2.98-14.68-8.28-19.98c-5.3-5.3-12.49-8.28-19.98-8.28c-7.5,0-14.68,2.98-19.98,8.28 c-5.3,5.3-8.28,12.49-8.28,19.98c0,7.5,2.98,14.68,8.28,19.98c5.3,5.3,12.49,8.28,19.98,8.28c7.5,0,14.68-2.98,19.98-8.28 C480.9,312.88,483.88,305.7,483.88,298.2z M444.86,298.2c0-4.35,2.62-8.28,6.64-9.94c4.02-1.67,8.65-0.75,11.73,2.33 s4,7.71,2.33,11.73c-1.66,4.02-5.59,6.64-9.94,6.64C449.67,308.96,444.86,304.14,444.86,298.2L444.86,298.2z"></path><path class="st0" d="M546.88,269.15l-16.8,16.8c-1.66,1.64-2.59,3.88-2.59,6.21c0,2.33,0.93,4.57,2.59,6.21 c1.65,1.64,3.89,2.55,6.21,2.54c2.32,0.01,4.56-0.9,6.21-2.54l16.8-16.8c3.43-3.43,3.43-8.99,0-12.43 C555.87,265.72,550.31,265.72,546.88,269.15L546.88,269.15z"></path><path class="st0" d="M378.09,303.98c2.3-0.01,4.5-0.92,6.12-2.54c3.39-3.41,3.39-8.93,0-12.34l-19.86-19.95l0,0 c-3.43-3.43-9-3.43-12.43,0c-3.43,3.43-3.43,9,0,12.43l19.95,19.86C373.53,303.08,375.77,303.99,378.09,303.98L378.09,303.98z"></path><path class="st0" d="M464.54,333.64h-17.5c-4.84,0-8.75,3.92-8.75,8.75s3.91,8.75,8.75,8.75h17.5c4.83,0,8.75-3.92,8.75-8.75 S469.37,333.64,464.54,333.64z"></path></svg>