<svg xmlns="http://www.w3.org/2000/svg" xmlns:xlink="http://www.w3.org/1999/xlink" id="Isolation_Mode" x="0px" y="0px" viewBox="0 0 700 700" style="enable-background:new 0 0 700 700;" xml:space="preserve"><style type="text/css">	.st0{fill:#8A5F5F;}</style><g>	<path class="st0" d="M256.77,331.43c-1.63,0-3.27-0.24-4.88-0.72c-4.41-1.34-8.13-4.51-10.25-8.71c-1.91-3.82-2.43-8.24-1.56-12.84  c-3.6,0.43-6.97,0.19-10.03-0.73c-1.32-0.39-2.59-0.92-3.75-1.57c-4.04-2.22-6.91-5.81-8.05-10.12c-1.18-4.49-0.22-9.28,2.6-13.17  c2.39-3.26,5.96-5.71,10.36-7.15c-3.71-4.73-4.71-9.04-4.79-12.12c-0.12-4.62,1.69-8.85,5.11-11.9c3.36-3,8.05-4.45,12.87-3.95  c4.34,0.45,8.56,2.38,12.28,5.57c2.37-5.6,5.88-8.57,8.72-10.13c3.98-2.17,8.55-2.65,12.92-1.35c4.41,1.34,8.14,4.51,10.25,8.7  c1.91,3.83,2.43,8.25,1.55,12.85c6.33-0.78,10.86,0.7,13.73,2.26c4.07,2.24,6.94,5.83,8.09,10.14c1.19,4.52,0.22,9.31-2.62,13.19  c-2.37,3.26-5.95,5.7-10.34,7.14c3.71,4.74,4.71,9.04,4.78,12.12c0.12,4.63-1.69,8.85-5.12,11.9c-3.37,3-8.05,4.44-12.87,3.93  c-1.23-0.12-2.47-0.37-3.71-0.75c-3.01-0.9-5.92-2.54-8.57-4.83c-2.37,5.6-5.88,8.57-8.72,10.13  C262.3,330.74,259.55,331.43,256.77,331.43L256.77,331.43z M263.35,293.02l-7.2,9.57c-1.47,1.96-2.59,3.78-3.31,5.39  c-1.49,3.38-1.7,6.47-0.59,8.71c0.65,1.3,1.77,2.27,3.06,2.66c1.29,0.39,2.6,0.26,3.76-0.39c2.12-1.16,3.76-3.98,4.6-7.93  c0.37-1.74,0.48-3.83,0.35-6.22L263.35,293.02z M270.53,292l4.77,9.88c1.09,2.26,2.24,4.16,3.42,5.67c2.07,2.62,4.48,4.45,6.8,5.14  c0.51,0.15,0.99,0.25,1.47,0.3c1.48,0.15,2.46-0.22,3.33-0.99c0.8-0.7,0.7-1.61,0.7-2.72v-0.02c0-1.38-0.32-4.29-4.82-8.17  c-1.48-1.28-3.18-2.53-5.5-3.72L270.53,292z M241.34,286.8c-0.82,0-1.6,0.04-2.33,0.1c-3.98,0.37-7.1,1.71-8.55,3.69  c-0.71,0.98-0.97,2.12-0.71,3.13c0.37,1.44,1.47,2.29,2.31,2.75c0.45,0.25,0.91,0.44,1.41,0.59c2.34,0.71,5.42,0.55,8.94-0.48  c1.82-0.52,3.83-1.43,6-2.7l9.26-5.41l-11.61-1.37C244.36,286.9,242.79,286.8,241.34,286.8L241.34,286.8z M272.56,284.82  l11.79,1.37c2.6,0.3,4.92,0.37,6.86,0.18c4-0.37,7.11-1.71,8.56-3.69c0.73-0.99,0.99-2.12,0.72-3.13c-0.3-1.13-1.11-2.1-2.31-2.76  c-1.38-0.75-4.58-1.78-10.35-0.11c-1.83,0.53-3.84,1.43-6,2.7L272.56,284.82z M242.59,260.25c-1.24,0-2.37,0.37-3.12,1.03  c-0.79,0.7-1.17,1.61-1.14,2.72c0.04,1.39,0.77,4.3,5.26,8.19c1.4,1.21,3.27,2.39,5.88,3.73l10.17,5.21l-4.7-9.74  c-1.1-2.27-2.25-4.17-3.42-5.67c-2.5-3.18-5.52-5.16-8.28-5.45C243.01,260.25,242.79,260.25,242.59,260.25L242.59,260.25z   M273.46,253.72c-0.8,0-1.59,0.2-2.33,0.6c-2.12,1.17-3.76,3.98-4.58,7.92c-0.37,1.73-0.48,3.83-0.36,6.24l0.65,11.77l7.23-9.57  c1.47-1.94,2.58-3.76,3.3-5.38c1.5-3.39,1.71-6.49,0.59-8.72c-0.64-1.3-1.76-2.26-3.05-2.65  C274.43,253.79,273.95,253.72,273.46,253.72L273.46,253.72z"></path>	<path class="st0" d="M432.22,176.16c-1.2,0-2.41-0.15-3.61-0.45c-3.83-0.98-7.16-3.56-9.12-7.09c-1.52-2.73-2.19-5.86-1.98-9.17  c-2.4,0.22-4.65,0.07-6.77-0.48c-1.12-0.29-2.2-0.68-3.22-1.18c-3.58-1.77-6.18-4.77-7.33-8.44c-1.19-3.86-0.55-8.04,1.75-11.5  c1.63-2.44,4-4.39,6.91-5.78c-2.45-3.34-3.23-6.42-3.4-8.73c-0.27-3.93,1.18-7.77,3.99-10.51c2.82-2.72,6.8-4.13,10.94-3.88  c3.16,0.18,6.3,1.3,9.17,3.25c1.79-3.85,4.3-6.08,6.39-7.35c3.34-2.03,7.29-2.6,11.06-1.63c3.83,0.97,7.16,3.57,9.12,7.1  c1.52,2.72,2.17,5.86,1.97,9.16c4.43-0.39,7.75,0.55,9.97,1.64c3.6,1.78,6.2,4.78,7.34,8.45c1.19,3.85,0.55,8.05-1.77,11.51  c-1.63,2.43-3.98,4.38-6.89,5.76c2.44,3.33,3.23,6.42,3.38,8.73c0.28,3.96-1.18,7.79-4,10.52c-2.78,2.71-6.85,4.12-10.91,3.87  c-1.07-0.07-2.11-0.22-3.16-0.49c-2.09-0.53-4.11-1.46-6.03-2.75c-1.79,3.85-4.3,6.08-6.39,7.34  C437.38,175.45,434.82,176.16,432.22,176.16L432.22,176.16z M435.71,148.15l-3.35,4.85c-1.03,1.48-1.79,2.86-2.28,4.08  c-0.89,2.3-0.99,4.4-0.23,5.75c0.37,0.68,1.01,1.19,1.68,1.36c0.67,0.17,1.37,0.08,1.97-0.29c0.76-0.46,2.11-1.78,2.74-5.49  c0.21-1.28,0.23-2.81,0.05-4.56L435.71,148.15z M445.16,146.25l2.27,4.22c0.89,1.66,1.81,3.04,2.72,4.1c1.54,1.79,3.26,3,4.86,3.41  c0.31,0.08,0.62,0.12,0.92,0.14c1.04,0.07,1.63-0.25,1.95-0.55c0.33-0.32,0.45-0.67,0.42-1.16l0,0c-0.04-0.56-0.43-2.58-3.91-5.33  c-1.12-0.89-2.58-1.75-4.35-2.57L445.16,146.25z M420.29,141.64c-1.01,0-1.93,0.05-2.78,0.17c-2.71,0.37-4.84,1.35-5.69,2.63  c-0.31,0.47-0.41,0.98-0.29,1.4c0.21,0.67,0.8,1.08,1.25,1.31c0.27,0.13,0.56,0.24,0.88,0.32c1.13,0.3,3.15,0.41,6.26-0.63  c1.3-0.44,2.77-1.18,4.34-2.19l3.86-2.48l-5.37-0.41C421.9,141.68,421.07,141.64,420.29,141.64L420.29,141.64z M447.46,136.8  l5.49,0.4c1.97,0.14,3.69,0.11,5.13-0.08c2.71-0.37,4.84-1.35,5.7-2.63c0.31-0.48,0.42-0.98,0.3-1.38  c-0.22-0.69-0.8-1.11-1.25-1.33c-0.93-0.46-3.12-1.03-7.15,0.33c-1.33,0.45-2.78,1.18-4.32,2.17L447.46,136.8z M417.72,119.9  c-0.29,0.33-0.45,1.41-0.41,1.89c0.04,0.56,0.43,2.93,3.93,5.71c1.06,0.84,2.48,1.83,4.47,2.75l4.7,2.25l-2.22-4.08  c-0.89-1.67-2.39-4.85-3.23-6.25C423.49,119.73,419.53,117.82,417.72,119.9L417.72,119.9z M443.41,114.64  c-0.46,0-0.89,0.12-1.3,0.37c-1.31,0.8-2.29,2.74-2.74,5.49c-0.21,1.26-0.22,2.8-0.05,4.57l0.56,5.74l3.37-4.88  c1.03-1.48,1.79-2.85,2.26-4.07c0.91-2.31,1-4.41,0.24-5.77c-0.37-0.68-1-1.19-1.67-1.36  C443.85,114.66,443.62,114.64,443.41,114.64L443.41,114.64z"></path>	<path class="st0" d="M353.25,597.25c-3.66,0-7.27-1.45-9.98-4.05c-2.2-2.1-3.74-4.82-4.52-7.94c-2.13,0.87-4.27,1.37-6.38,1.48  c-1.15,0.04-2.29,0-3.38-0.18c-3.91-0.63-7.26-2.7-9.4-5.83c-2.24-3.27-2.87-7.42-1.7-11.36c0.82-2.74,2.44-5.24,4.72-7.37  c-3.21-2.41-4.83-5.06-5.64-7.18c-1.43-3.68-1.19-7.62,0.69-11.08c1.86-3.4,5.21-5.9,9.18-6.87c3.01-0.74,6.26-0.61,9.47,0.34  c0.59-4.08,2.28-6.88,3.86-8.67c2.56-2.88,6.09-4.58,9.96-4.78c3.76-0.17,7.79,1.27,10.69,4.04c2.2,2.1,3.73,4.82,4.51,7.94  c4.03-1.65,7.39-1.69,9.77-1.3c3.91,0.63,7.25,2.7,9.4,5.83c2.25,3.28,2.87,7.42,1.7,11.38c-0.81,2.73-2.43,5.23-4.72,7.35  c3.2,2.4,4.82,5.05,5.64,7.15v0c1.41,3.64,1.16,7.69-0.7,11.1c-1.86,3.39-5.21,5.89-9.19,6.86c-0.99,0.24-2.04,0.4-3.11,0.46  c-2.05,0.08-4.22-0.16-6.35-0.8c-0.59,4.08-2.27,6.86-3.86,8.66c-2.56,2.89-6.1,4.58-9.97,4.78  C353.72,597.24,353.49,597.25,353.25,597.25L353.25,597.25z M352.63,569.53l-1.63,5.25c-0.53,1.7-0.85,3.2-0.94,4.46  c-0.17,2.39,0.34,4.35,1.41,5.38c0.52,0.51,1.25,0.85,1.88,0.75c0.67-0.04,1.25-0.31,1.68-0.8c0.97-1.11,1.3-3.18,0.94-5.85  c-0.16-1.22-0.59-2.66-1.27-4.26L352.63,569.53z M343.44,566.01l-4.79,1.09c-1.92,0.44-3.57,0.97-4.87,1.58  c-2.41,1.12-4.1,2.64-4.52,4.06c-0.14,0.48-0.11,0.96,0.12,1.27c0.37,0.56,1.02,0.76,1.49,0.84c0.27,0.05,0.59,0.06,0.89,0.04  c1.12-0.06,3.01-0.52,5.6-2.39c1.11-0.8,2.24-1.9,3.4-3.28L343.44,566.01z M361.25,564.88l3.09,3.06c1.29,1.28,2.54,2.3,3.71,3.04  c1.92,1.21,3.83,1.84,5.47,1.74c0.3-0.01,0.58-0.05,0.87-0.12c0.9-0.22,1.43-0.7,1.61-1.03c0.19-0.35,0.2-0.7,0.04-1.12  c-0.19-0.5-1.13-2.24-5.15-3.79c-1.3-0.51-2.91-0.89-4.8-1.13L361.25,564.88z M330.84,548.25c-0.41,0-0.8,0.05-1.16,0.13  c-0.88,0.22-1.41,0.7-1.6,1.03c-0.18,0.35-0.2,0.7-0.04,1.12c0.19,0.51,1.12,2.23,5.15,3.79c1.23,0.48,2.79,0.83,4.91,1.11  l4.67,0.61l-3.03-2.99c-1.29-1.28-2.54-2.3-3.71-3.04C334.2,548.87,332.38,548.25,330.84,548.25L330.84,548.25z M372.58,546.1  c-1.16,0-3.11,0.41-5.86,2.41c-1.08,0.78-2.23,1.89-3.4,3.29l-2.71,3.22l4.94-1.15c1.9-0.45,3.5-0.97,4.76-1.56  c2.41-1.12,4.1-2.63,4.52-4.04c0.15-0.51,0.11-0.97-0.11-1.29c-0.37-0.56-1.01-0.76-1.48-0.84  C373.05,546.11,372.83,546.1,372.58,546.1L372.58,546.1z M350.84,533.46h-0.11c-0.67,0-1.25,1.38-1.68,1.87  c-0.96,1.08-1.3,3.75-0.94,6.39c0.16,1.22,0.59,2.93,1.27,4.53l2.07,5.04l1.64-5.16c0.53-1.68,0.85-3.14,0.94-4.41  c0.17-2.39-0.34-5.41-1.41-6.44C352.12,534.79,351.46,533.46,350.84,533.46L350.84,533.46z"></path>	<path class="st0" d="M530.37,427.81c-2.77,0-5.56-0.69-8.13-2.06c-4.2-2.22-7.59-6.08-9.87-11.16c-4.83,5.45-9.66,7.39-13.17,8  c-4.97,0.87-9.75-0.43-13.55-3.62c-3.75-3.13-6.03-7.96-6.25-13.23c-0.06-1.36,0.01-2.71,0.22-4.08c0.56-3.81,2.11-7.56,4.53-11.09  c-7.14-1.59-11.21-5.12-13.46-8.1c-2.97-3.93-4.2-8.78-3.48-13.67c0.74-4.94,3.57-9.46,7.76-12.39c4.11-2.87,9.28-4.1,14.8-3.64  c-1.3-4.27-1.68-8.32-1.12-12.13c0.22-1.48,0.59-2.9,1.08-4.25c1.76-4.74,5.18-8.39,9.63-10.29c4.64-1.96,9.93-1.7,14.53,0.74  c4.2,2.23,7.6,6.1,9.89,11.17c4.83-5.45,9.67-7.38,13.17-7.99c4.96-0.86,9.75,0.41,13.55,3.61c3.75,3.15,6.03,7.97,6.25,13.23  c0.22,5.1-1.44,10.35-4.74,15.17c7.13,1.59,11.21,5.12,13.46,8.1c2.97,3.93,4.2,8.78,3.48,13.68c-0.73,4.94-3.56,9.46-7.76,12.39  c-4.1,2.86-9.25,4.09-14.8,3.63c2.24,7.34,1.36,12.85,0.04,16.4c-1.77,4.74-5.19,8.38-9.64,10.28  C534.73,427.38,532.56,427.81,530.37,427.81L530.37,427.81z M520.44,381.95l0.48,15.88c0.09,3.05,0.4,5.71,0.93,7.9  c1.12,4.65,3.3,8.12,5.95,9.53c1.44,0.77,3.01,0.89,4.33,0.32c1.41-0.6,2.54-1.85,3.15-3.5c0.82-2.19,1.21-6.1-1.59-12.25  c-0.92-2.02-2.3-4.19-4.12-6.47L520.44,381.95z M514.46,381.23l-12.29,8.33c-2.41,1.64-4.42,3.29-5.95,4.9  c-2.75,2.89-4.44,5.98-4.87,8.92c-0.09,0.61-0.12,1.23-0.1,1.86c0.08,1.9,0.84,3.63,2.02,4.62c1.1,0.92,2.44,1.26,3.91,1.02  c1.68-0.29,5.07-1.66,8.86-7.6c1.22-1.92,2.34-4.34,3.33-7.2L514.46,381.23z M523.25,376.87l13.81,7.58  c2.46,1.36,4.74,2.33,6.75,2.89c4.29,1.19,8.03,0.87,10.55-0.88c1.54-1.07,2.56-2.68,2.82-4.4c0.26-1.71-0.17-3.41-1.2-4.78  c-1.28-1.69-4.1-3.79-10.25-4.17c-2.06-0.12-4.52,0.09-7.26,0.64L523.25,376.87z M487.48,364.54c-2.25,0-4.21,0.54-5.73,1.6  c-1.52,1.07-2.56,2.67-2.82,4.4c-0.26,1.74,0.15,3.39,1.2,4.77c1.28,1.69,4.1,3.79,10.25,4.17c2.07,0.12,4.52-0.09,7.26-0.64  l15.23-3.11l-13.81-7.58c-2.46-1.36-4.74-2.33-6.75-2.89C490.59,364.77,488.98,364.54,487.48,364.54L487.48,364.54z M539.87,341.63  c-0.3,0-0.6,0.02-0.91,0.08c-1.69,0.29-5.08,1.66-8.88,7.6c-1.16,1.83-2.22,4.17-3.31,7.38l-4.94,14.53l12.14-8.2  c2.39-1.62,4.39-3.27,5.94-4.89c3.35-3.53,5.11-7.35,4.97-10.76c-0.08-1.91-0.84-3.65-2.03-4.64  C541.99,342,540.98,341.63,539.87,341.63L539.87,341.63z M505.76,336.66c-0.62,0-1.21,0.11-1.76,0.35c-1.41,0.6-2.54,1.85-3.15,3.5  c-0.22,0.59-0.37,1.21-0.48,1.88c-0.42,2.87,0.29,6.46,2.07,10.37c0.93,2.04,2.31,4.21,4.11,6.46l9.09,11.35l-0.43-15.62  c-0.08-3.12-0.4-5.85-0.94-8.09c-1.12-4.64-3.3-8.12-5.96-9.53C507.48,336.88,506.6,336.66,505.76,336.66L505.76,336.66z"></path>	<path class="st0" d="M596.03,330.82c-0.39-1.56-1.63-3.83-5.26-5.81c-1.23-0.67-2.64-1.16-4.07-1.52c1.44-0.19,2.87-0.5,4.16-0.97  c2.89-1.06,4.94-2.84,5.8-5.01c0.62-1.56,0.56-3.25-0.14-4.64c-0.7-1.38-1.92-2.37-3.44-2.81c-1.54-0.44-4.12-0.51-7.67,1.65  c-1.2,0.74-2.33,1.7-3.35,2.76c0.55-1.34,1-2.73,1.23-4.08c0.53-3.03,0.01-5.71-1.44-7.53c-1.04-1.31-2.53-2.11-4.09-2.19  c-1.54-0.08-3.02,0.48-4.16,1.58c-1.15,1.12-2.51,3.33-2.4,7.46c0.04,1.41,0.31,2.87,0.71,4.29c-0.89-1.15-1.86-2.23-2.92-3.12  c-2.36-1.97-4.93-2.86-7.24-2.52c-1.66,0.24-3.09,1.14-3.95,2.45c-0.84,1.3-1.09,2.85-0.71,4.39c0.39,1.56,1.63,3.83,5.26,5.82  c1.26,0.69,2.7,1.15,4.16,1.52c-1.47,0.19-2.93,0.5-4.25,0.99c-2.89,1.06-4.94,2.84-5.8,5.01c-0.61,1.56-0.56,3.25,0.15,4.64  c0.7,1.38,1.92,2.37,3.44,2.81c0.41,0.12,0.89,0.21,1.44,0.24c1.54,0.08,3.62-0.3,6.22-1.89c1.2-0.73,2.33-1.7,3.35-2.76  c-0.55,1.34-1,2.73-1.23,4.08c-0.53,3.03-0.01,5.71,1.44,7.53c1.04,1.31,2.53,2.11,4.09,2.19c1.54,0.08,3.02-0.48,4.16-1.58  c1.15-1.12,2.51-3.33,2.4-7.46c-0.04-1.41-0.31-2.87-0.71-4.29c0.89,1.15,1.86,2.23,2.92,3.12c1.9,1.59,3.93,2.48,5.86,2.58  c0.47,0.02,0.93,0,1.38-0.07c1.66-0.24,3.09-1.14,3.95-2.45C596.17,333.91,596.42,332.35,596.03,330.82L596.03,330.82z"></path>	<path class="st0" d="M509.42,458.03c-0.68-1.06-2.17-2.45-5.37-3.01c-1.08-0.19-2.26-0.21-3.41-0.12c1.02-0.51,2.01-1.08,2.86-1.76  c1.88-1.51,2.97-3.35,3.06-5.18c0.07-1.31-0.4-2.56-1.27-3.42c-0.87-0.85-2.03-1.29-3.26-1.23c-1.26,0.06-3.2,0.65-5.29,3.15  c-0.71,0.85-1.3,1.85-1.81,2.89c0.07-1.13,0.07-2.28-0.1-3.35c-0.37-2.39-1.42-4.24-2.96-5.24c-1.11-0.71-2.41-0.93-3.59-0.6  c-1.17,0.32-2.12,1.11-2.7,2.22c-0.58,1.12-1.03,3.1,0.08,6.16c0.38,1.04,0.95,2.05,1.6,3.01c-0.94-0.63-1.95-1.19-2.96-1.59  c-2.25-0.87-4.39-0.89-6.02-0.06c-1.17,0.6-2.02,1.62-2.33,2.81c-0.3,1.18-0.1,2.4,0.57,3.44c0.68,1.06,2.17,2.45,5.37,3.01  c1.11,0.19,2.3,0.18,3.47,0.08c-1.04,0.51-2.05,1.11-2.92,1.8c-1.88,1.51-2.97,3.35-3.06,5.18c-0.07,1.31,0.4,2.56,1.27,3.41  c0.87,0.85,2.03,1.29,3.26,1.23c0.33-0.02,0.71-0.07,1.13-0.18c1.16-0.32,2.62-1.13,4.16-2.96c0.71-0.85,1.3-1.85,1.81-2.89  c-0.08,1.13-0.07,2.28,0.1,3.35c0.37,2.39,1.42,4.24,2.96,5.24c1.11,0.71,2.41,0.93,3.59,0.6c1.17-0.32,2.12-1.11,2.7-2.22  c0.58-1.12,1.03-3.1-0.08-6.16c-0.38-1.04-0.95-2.05-1.6-3.01c0.94,0.63,1.95,1.19,2.96,1.59c1.81,0.71,3.55,0.85,5.01,0.45  c0.36-0.1,0.69-0.23,1.01-0.39c1.17-0.6,2.02-1.62,2.33-2.81C510.29,460.3,510.09,459.08,509.42,458.03L509.42,458.03z"></path>	<path class="st0" d="M615.3,248.28c1.78-3.79,1.89-8.08,0.31-11.78c-1.58-3.66-4.53-6.41-8.32-7.75c-2.35-0.83-5.75-1.38-10.1-0.33  c-0.17-3.47-1.19-6.64-3.01-9.25c-2.39-3.44-6.05-5.68-10.04-6.16c-3.91-0.43-7.8,0.71-10.89,3.34c-1.89,1.62-4.07,4.3-5.32,8.57  c-3.09-1.57-6.31-2.29-9.52-2.01c-4.17,0.35-7.94,2.4-10.36,5.63c-2.37,3.19-3.28,7.12-2.55,11.07c0.45,2.45,1.68,5.68,4.77,8.92  c-2.91,1.88-5.15,4.34-6.51,7.24c-1.77,3.79-1.88,8.08-0.3,11.75c1.57,3.66,4.53,6.42,8.31,7.76c1.08,0.38,2.23,0.65,3.44,0.8  c2.15,0.26,4.38,0.1,6.68-0.46c0.17,3.47,1.19,6.63,3.02,9.25c2.39,3.44,6.05,5.68,10.03,6.15c0.57,0.07,1.13,0.1,1.69,0.1  c3.35,0,6.56-1.19,9.2-3.44c1.89-1.62,4.07-4.3,5.33-8.57c2.04,1.04,4.15,1.7,6.27,1.96c1.09,0.12,2.18,0.15,3.25,0.05  c4.17-0.35,7.94-2.4,10.34-5.61c2.39-3.18,3.3-7.12,2.56-11.09c-0.45-2.45-1.67-5.68-4.76-8.92  C611.73,253.62,613.95,251.16,615.3,248.28L615.3,248.28z M580.95,225.38c0.46-0.4,0.97-0.6,1.52-0.6c0.09,0,0.18,0,0.27,0.02  c0.61,0.07,1.24,0.5,1.69,1.15c0.99,1.42,1.19,3.81,0.53,6.55c-0.34,1.4-0.94,3-1.8,4.75l-0.56,1.16  c-0.43-0.27-0.91-0.45-1.41-0.51c-0.57-0.07-1.12,0.05-1.65,0.25l-0.26-1.23c-0.4-1.88-0.58-3.56-0.52-4.97  C578.93,227.57,580.36,225.89,580.95,225.38L580.95,225.38z M557.56,235.65c0.37-0.5,1.06-0.84,1.84-0.9  c0.11,0,0.22-0.01,0.33-0.01c1.68,0,3.71,1.01,5.62,2.84c1.05,0.99,2.12,2.31,3.21,3.92l0.72,1.08c-0.45,0.24-0.84,0.56-1.14,0.96  c-0.33,0.45-0.51,0.96-0.6,1.49l-1.09-0.35c-2.05-0.65-3.54-1.29-4.67-2.01c-3.72-2.35-4.46-4.42-4.6-5.21  C557.05,236.77,557.18,236.16,557.56,235.65L557.56,235.65z M566.58,259.78c-1.42,1.3-2.78,2.28-4.03,2.94  c-2.92,1.54-4.89,1.7-5.95,1.57c-0.31-0.04-0.59-0.1-0.87-0.19c-0.65-0.23-1.12-0.64-1.37-1.24c-0.24-0.57-0.19-1.34,0.14-2.04  c0.74-1.58,2.71-2.94,5.41-3.74c1.39-0.41,3.12-0.7,5.13-0.83l1.16-0.08c-0.02,0.51,0.07,1,0.26,1.47c0.22,0.53,0.6,0.94,1.03,1.3  L566.58,259.78z M578.1,278.66c-0.53,0.46-1.11,0.67-1.78,0.58c-0.61-0.07-1.24-0.5-1.69-1.15c-1-1.42-1.19-3.82-0.53-6.55  c0.34-1.4,0.94-3,1.8-4.75l0.56-1.16c0.43,0.27,0.91,0.45,1.41,0.51c0.57,0.07,1.12-0.05,1.65-0.25l0.26,1.23  c0.4,1.88,0.58,3.56,0.52,4.97C580.15,276.31,578.85,278.03,578.1,278.66L578.1,278.66z M600.42,268.39  c-0.37,0.5,0.02,0.84-0.76,0.9c-0.27,0.01-0.56,0.03-0.85-0.02c-1.57-0.18-3.38-1.18-5.09-2.81c-1.05-0.99-2.12-2.31-3.21-3.92  l-0.72-1.08c0.45-0.24,0.84-0.56,1.14-0.96c0.31-0.42,0.51-0.89,0.6-1.4l0.65,0.24c1.85,0.6,2.84,1.28,4.03,2.03  c3.73,2.34,3.52,4.41,3.52,5.19v0.03C599.72,267.27,600.81,267.88,600.42,268.39L600.42,268.39z M604.55,243.23  c-0.74,1.57-2.71,2.93-5.41,3.73c-1.37,0.41-3.05,0.68-5,0.82l-1.3,0.09c0.02-0.51-0.07-1-0.27-1.47c-0.22-0.53-0.6-0.94-1.03-1.3  l0.94-0.85c1.42-1.3,2.78-2.28,4.03-2.94c2.42-1.27,4.18-1.6,5.34-1.6c0.7,0,1.19,0.12,1.48,0.22c0.65,0.23,1.12,0.65,1.37,1.24  C604.94,241.75,604.89,242.52,604.55,243.23L604.55,243.23z"></path>	<path class="st0" d="M247,111.41c0,4.02-3.25,7.28-7.28,7.28s-7.28-3.26-7.28-7.28s3.26-7.28,7.28-7.28S247,107.39,247,111.41"></path>	<path class="st0" d="M102.53,216.14c0,4.58-3.71,8.29-8.29,8.29c-4.58,0-8.29-3.71-8.29-8.29c0-4.58,3.71-8.29,8.29-8.29  C98.82,207.85,102.53,211.56,102.53,216.14"></path>	<path class="st0" d="M280.52,190.68c0,4.28-3.47,7.75-7.75,7.75s-7.76-3.47-7.76-7.75s3.47-7.75,7.76-7.75  S280.52,186.4,280.52,190.68"></path>	<path class="st0" d="M298.46,230.04c0,7.48-11.22,7.48-11.22,0C287.24,222.56,298.46,222.56,298.46,230.04"></path>	<path class="st0" d="M559.68,200.36c0,7.48-11.22,7.48-11.22,0C548.46,192.88,559.68,192.88,559.68,200.36"></path>	<path class="st0" d="M204.79,288.46c0,5.06-4.1,9.16-9.16,9.16c-5.06,0-9.16-4.1-9.16-9.16s4.1-9.16,9.16-9.16  C200.69,279.29,204.79,283.39,204.79,288.46"></path>	<path class="st0" d="M433.63,192.43c0,3.31-2.69,6-6,6c-3.32,0-6-2.69-6-6c0-3.32,2.69-6,6-6  C430.94,186.43,433.63,189.11,433.63,192.43"></path>	<path class="st0" d="M503.96,111.72c0,3.85-3.12,6.97-6.97,6.97c-3.85,0-6.97-3.12-6.97-6.97c0-3.85,3.12-6.97,6.97-6.97  C500.84,104.75,503.96,107.87,503.96,111.72"></path>	<path class="st0" d="M494.54,160.53c0,3.33-2.7,6.03-6.03,6.03c-3.33,0-6.03-2.7-6.03-6.03c0-3.33,2.7-6.03,6.03-6.03  C491.84,154.5,494.54,157.2,494.54,160.53"></path>	<path class="st0" d="M605.89,192.32c0,5.18-4.2,9.38-9.39,9.38c-5.18,0-9.38-4.2-9.38-9.38c0-5.18,4.2-9.39,9.38-9.39  C601.69,182.94,605.89,187.14,605.89,192.32"></path>	<path class="st0" d="M464.6,415.82c0,4.08-3.31,7.39-7.39,7.39c-4.08,0-7.38-3.31-7.38-7.39s3.3-7.38,7.38-7.38  S464.6,411.74,464.6,415.82"></path>	<path class="st0" d="M455.37,366.89c2.21-2.33,3.32-5.37,3.06-8.34c-0.26-2.94-1.71-5.59-4.1-7.45c-2.43-1.88-6.97-3.85-14.79-2.55  c-2.65,0.45-5.35,1.36-7.93,2.5c1.93-1.98,3.73-4.12,5.12-6.37c3.1-5,4.1-10.11,2.82-14.4c-0.92-3.07-2.99-5.55-5.69-6.82  c-2.68-1.25-5.7-1.31-8.51-0.17c-2.84,1.16-6.82,4.11-9.6,11.53c-0.94,2.52-1.49,5.31-1.8,8.12c-0.75-2.67-1.71-5.3-2.96-7.62  c-2.78-5.18-6.7-8.6-11.05-9.65c-3.11-0.75-6.3-0.19-8.75,1.52c-2.42,1.69-3.98,4.28-4.39,7.28c-0.42,3.04,0.14,7.96,5.18,14.08  c1.74,2.12,3.98,3.97,6.3,5.66c-2.74-0.71-5.56-1.21-8.25-1.3c-5.88-0.18-10.8,1.5-13.89,4.75c-2.19,2.33-3.31,5.37-3.06,8.34  c0.26,2.94,1.71,5.59,4.11,7.45c0.64,0.5,1.43,1,2.39,1.45c2.67,1.25,6.64,2.06,12.39,1.1c2.65-0.45,5.35-1.36,7.93-2.49  c-1.93,1.98-3.73,4.12-5.12,6.36c-3.1,5-4.1,10.11-2.82,14.4c0.92,3.07,2.99,5.55,5.69,6.82c2.68,1.25,5.7,1.31,8.51,0.17  c2.84-1.16,6.82-4.11,9.6-11.53c0.94-2.52,1.49-5.31,1.8-8.12c0.75,2.67,1.71,5.3,2.96,7.62c2.24,4.17,5.21,7.21,8.56,8.77  c0.81,0.38,1.64,0.67,2.49,0.87c3.11,0.75,6.3,0.19,8.75-1.52c2.41-1.69,3.98-4.27,4.39-7.28c0.42-3.04-0.14-7.96-5.18-14.08  c-1.71-2.08-3.85-3.95-6.12-5.62c2.69,0.68,5.45,1.17,8.08,1.25C447.37,371.83,452.29,370.14,455.37,366.89L455.37,366.89z   M415.66,371.49c-5.03,0-9.11-4.08-9.11-9.11c0-5.03,4.08-9.11,9.11-9.11c5.03,0,9.11,4.08,9.11,9.11  C424.76,367.42,420.68,371.49,415.66,371.49z"></path>	<path class="st0" d="M400.92,182.21c-3.01-2.84-8.27-6.03-16.88-6.48c3.15-5.74,4.29-11.71,3.21-17.24  c-1.06-5.48-4.3-10.17-8.9-12.9c-4.53-2.68-9.85-3.31-14.99-1.77c-3.97,1.19-9.35,4.16-14.03,11.39c-3.38-5.6-8-9.58-13.33-11.42  c-5.28-1.81-10.98-1.35-15.59,1.26c-4.59,2.59-7.8,6.87-9.04,12.09c-0.95,4.04-1.08,10.18,2.84,17.86  c-6.54,0.13-12.29,2.13-16.54,5.83c-4.21,3.66-6.66,8.82-6.72,14.16c-0.04,5.27,2.08,10.19,5.96,13.84  c3.01,2.84,8.27,6.04,16.89,6.48c-3.15,5.74-4.3,11.72-3.22,17.25c1.07,5.48,4.32,10.17,8.9,12.88c4.53,2.68,9.84,3.3,14.95,1.78  c1.48-0.43,2.96-1.06,4.37-1.86c3.71-2.1,6.97-5.3,9.71-9.52c3.39,5.6,8,9.57,13.33,11.4c2.12,0.74,4.33,1.1,6.49,1.1  c3.2,0,6.34-0.79,9.11-2.35c4.58-2.59,7.79-6.87,9.03-12.1c0.95-4.04,1.08-10.18-2.84-17.85c4.83-0.1,9.24-1.21,12.94-3.3  c1.31-0.74,2.53-1.6,3.6-2.54c4.22-3.67,6.66-8.82,6.71-14.13C406.93,190.81,404.82,185.89,400.92,182.21L400.92,182.21z   M354.81,173.14c0.67-3.22,1.56-5.98,2.64-8.2c3.28-6.71,6.89-9.01,9.33-9.74c0.71-0.22,1.42-0.32,2.11-0.32  c1.2,0,2.35,0.31,3.41,0.94c1.67,0.99,2.86,2.79,3.28,4.94c0.71,3.64-0.71,8.04-3.98,12.34c-1.52,1.98-3.56,4.05-6.06,6.17  l-1.41,1.19c0.02-0.56,0-1.11-0.1-1.64c-0.34-1.78-1.38-3.29-2.83-4.15c-1.44-0.85-3.13-1.05-4.77-0.56  c-0.6,0.18-1.31,0.55-2.05,1.06L354.81,173.14z M322.92,159.89c0.47-1.98,1.61-3.53,3.33-4.49c0.96-0.55,2.08-0.82,3.26-0.82  c0.87,0,1.76,0.15,2.64,0.46c3.52,1.2,6.6,4.62,8.69,9.63c0.96,2.3,1.74,5.09,2.32,8.31l0.33,1.83c-0.48-0.3-0.96-0.56-1.48-0.74  c-1.71-0.59-3.54-0.45-5.01,0.38c-1.45,0.82-2.48,2.19-2.87,3.86c-0.14,0.61-0.17,1.41-0.11,2.3l-1.54-1.38  c-2.45-2.19-4.39-4.34-5.79-6.39C322.52,166.64,322.34,162.38,322.92,159.89L322.92,159.89z M318.16,203.43  c-5.87,0.39-10.49-0.74-13.11-3.22c-1.48-1.38-2.25-3.15-2.23-5.09c0.02-1.93,0.99-3.86,2.64-5.31c2.22-1.92,5.48-2.93,9.4-2.93  c1.05,0,2.15,0.08,3.28,0.22c2.47,0.31,5.29,1.04,8.37,2.15l1.74,0.63c-0.49,0.27-0.97,0.55-1.38,0.92  c-1.37,1.19-2.15,2.84-2.18,4.52c-0.02,1.67,0.66,3.23,1.9,4.41c0.43,0.41,1.07,0.82,1.83,1.19l-1.7,0.57  C323.25,202.65,320.53,203.27,318.16,203.43L318.16,203.43z M343.02,217.93c-0.67,3.21-1.56,5.97-2.64,8.2  c-2.09,4.27-4.65,7.35-7.42,8.91c-0.63,0.36-1.25,0.63-1.91,0.82c-1.94,0.59-3.85,0.37-5.53-0.62c-1.66-0.98-2.85-2.78-3.28-4.93  c-0.71-3.64,0.71-8.03,4-12.35c1.53-2.01,3.62-4.13,6.19-6.3l1.26-1.06c-0.02,0.56,0,1.11,0.1,1.64c0.35,1.78,1.38,3.28,2.83,4.15  c1.44,0.85,3.13,1.05,4.77,0.56c0.44-0.13,0.93-0.33,1.45-0.63c0.19-0.11,0.39-0.27,0.59-0.4L343.02,217.93z M342.03,195.26  c0-4.1,3.33-7.42,7.42-7.42c4.1,0,7.42,3.33,7.42,7.42c0,4.1-3.33,7.42-7.42,7.42C345.35,202.69,342.03,199.36,342.03,195.26z   M374.91,231.17c-0.48,1.98-1.61,3.54-3.31,4.49c-1.68,0.94-3.83,1.09-5.91,0.37c-3.52-1.2-6.6-4.62-8.69-9.62  c-0.96-2.29-1.74-5.09-2.32-8.32l-0.33-1.82c0.48,0.29,0.96,0.56,1.48,0.74c1.71,0.59,3.54,0.45,5.01-0.38  c1.45-0.82,2.48-2.19,2.87-3.86c0.14-0.61,0.17-1.41,0.11-2.3l1.55,1.38c2.45,2.19,4.39,4.34,5.78,6.4  C375.31,224.43,375.49,228.69,374.91,231.17L374.91,231.17z M392.35,201.27c-0.48,0.42-1.03,0.81-1.62,1.14  c-2.82,1.59-6.65,2.13-11.05,1.56c-2.46-0.31-5.28-1.04-8.36-2.15l-1.74-0.63c0.05-0.02,0.11-0.02,0.15-0.05  c0.44-0.25,0.85-0.53,1.22-0.86c1.37-1.19,2.16-2.84,2.18-4.52c0.02-1.67-0.66-3.23-1.9-4.41c-0.46-0.43-1.14-0.86-1.95-1.25  l1.97-0.65c3.12-1.03,5.95-1.63,8.44-1.81c7.83-0.56,11.58,1.78,13.09,3.2v0c1.48,1.4,2.26,3.16,2.23,5.1  C394.99,197.88,394.03,199.81,392.35,201.27L392.35,201.27z"></path>	<path class="st0" d="M572.63,145.69c0.99-2.49,0.89-5.21-0.23-7.43c-1.12-2.21-3.08-3.81-5.52-4.5c-2.48-0.7-6.61-0.81-12.28,2.64  c-1.92,1.18-3.73,2.73-5.37,4.42c0.88-2.15,1.6-4.37,1.98-6.55c0.84-4.85,0.02-9.14-2.31-12.06c-1.67-2.1-4.05-3.38-6.55-3.52  c-2.47-0.14-4.84,0.77-6.65,2.53c-1.85,1.79-4.01,5.33-3.85,11.95c0.05,2.26,0.5,4.6,1.14,6.87c-1.42-1.84-2.99-3.58-4.68-4.99  c-3.78-3.15-7.9-4.58-11.6-4.03c-2.65,0.39-4.95,1.82-6.32,3.92c-1.35,2.07-1.75,4.56-1.13,7.02c0.63,2.49,2.6,6.14,8.43,9.31  c2.02,1.1,4.33,1.84,6.66,2.42c-2.35,0.31-4.7,0.8-6.82,1.58c-4.62,1.7-7.92,4.55-9.29,8.03c-0.98,2.49-0.89,5.2,0.23,7.42  c1.12,2.21,3.08,3.81,5.52,4.5c0.65,0.19,1.42,0.33,2.31,0.38c2.46,0.14,5.8-0.48,9.97-3.02c1.92-1.18,3.73-2.73,5.37-4.42  c-0.88,2.15-1.6,4.37-1.98,6.54c-0.84,4.85-0.02,9.14,2.31,12.06c1.67,2.1,4.05,3.38,6.55,3.52c2.47,0.14,4.84-0.77,6.65-2.53  c1.85-1.79,4.01-5.33,3.85-11.95c-0.05-2.26-0.5-4.6-1.14-6.87c1.42,1.84,2.99,3.58,4.68,4.99c3.04,2.54,6.3,3.97,9.39,4.13  c0.75,0.04,1.48,0,2.21-0.1c2.65-0.39,4.95-1.82,6.32-3.92c1.35-2.07,1.75-4.56,1.13-7.02c-0.63-2.49-2.6-6.14-8.43-9.31  c-1.98-1.08-4.23-1.86-6.51-2.45c2.3-0.31,4.59-0.8,6.67-1.56C567.96,152.03,571.26,149.18,572.63,145.69L572.63,145.69z   M539.9,161.13c-3.84,0-6.96-3.12-6.96-6.96c0-3.84,3.12-6.96,6.96-6.96c3.84,0,6.96,3.12,6.96,6.96  C546.86,158.02,543.74,161.13,539.9,161.13z"></path>	<path class="st0" d="M390.01,298.37c-1.07-2.37-3.69-5.64-10.05-7.76c-2.16-0.72-4.54-1.1-6.92-1.27c2.23-0.72,4.43-1.61,6.35-2.74  c4.29-2.51,7.07-5.94,7.81-9.65c0.53-2.66-0.04-5.34-1.56-7.35c-1.51-2-3.75-3.23-6.29-3.49c-2.59-0.26-6.73,0.37-11.75,4.82  c-1.7,1.52-3.22,3.38-4.56,5.35c0.49-2.29,0.81-4.64,0.8-6.87c-0.03-4.97-1.61-9.09-4.45-11.6c-2.04-1.79-4.64-2.64-7.15-2.33  c-2.48,0.31-4.68,1.63-6.17,3.71c-1.52,2.11-3.04,6.01-1.69,12.58c0.46,2.23,1.32,4.48,2.36,6.63c-1.74-1.57-3.61-3.03-5.55-4.13  c-4.32-2.46-8.67-3.15-12.27-1.94c-2.56,0.87-4.6,2.7-5.59,5.03c-0.97,2.3-0.93,4.86,0.12,7.19c1.07,2.37,3.69,5.64,10.05,7.76  c2.2,0.74,4.64,1.06,7.06,1.22c-2.29,0.72-4.53,1.63-6.49,2.78c-4.29,2.51-7.07,5.94-7.81,9.65c-0.53,2.66,0.04,5.34,1.56,7.35  c1.51,2,3.75,3.23,6.29,3.49c0.69,0.07,1.48,0.08,2.36-0.04c2.48-0.31,5.69-1.52,9.38-4.79c1.7-1.52,3.22-3.38,4.56-5.35  c-0.49,2.29-0.82,4.64-0.8,6.87c0.03,4.97,1.61,9.09,4.45,11.6c2.04,1.79,4.64,2.64,7.15,2.33c2.48-0.31,4.68-1.63,6.17-3.71  c1.52-2.11,3.04-6.01,1.69-12.58c-0.46-2.23-1.32-4.48-2.36-6.63c1.74,1.57,3.61,3.03,5.55,4.13c3.48,1.98,6.98,2.82,10.09,2.43  c0.75-0.1,1.48-0.26,2.18-0.5c2.56-0.87,4.6-2.7,5.59-5.03C391.11,303.26,391.07,300.7,390.01,298.37L390.01,298.37z   M356.29,296.14c-2.75,0-4.99-2.23-4.99-4.99c0-2.75,2.23-4.99,4.99-4.99c2.75,0,4.99,2.23,4.99,4.99  C361.28,293.9,359.04,296.14,356.29,296.14z"></path>	<path class="st0" d="M348.49,423.81c11.31,0,20.83-3.59,26.91-10.15c4.69-5.06,7.02-11.68,6.38-18.15  c-0.63-6.41-3.85-12.12-9.09-16.09c-5.06-3.83-14.35-7.81-29.9-5.06c-0.89,0.16-1.79,0.39-2.7,0.6c0.45-0.67,0.92-1.34,1.33-2.02  c6.1-10.09,7.97-20.5,5.23-29.31c-2.04-6.6-6.6-11.92-12.53-14.62c-5.86-2.67-12.43-2.72-18.48-0.17  c-5.85,2.46-13.95,8.52-19.33,23.37c-0.31,0.85-0.56,1.74-0.82,2.63c-0.36-0.72-0.7-1.46-1.08-2.15  c-5.68-10.33-13.77-17.14-22.78-19.19c-6.75-1.52-13.62-0.23-18.92,3.55c-5.23,3.75-8.57,9.4-9.39,15.93  c-0.79,6.3,0.4,16.34,10.58,28.42c0.59,0.7,1.23,1.36,1.86,2.03c-0.81-0.05-1.61-0.12-2.41-0.14  c-11.82-0.29-21.75,3.35-28.01,10.13c-4.69,5.06-7.02,11.68-6.38,18.15c0.63,6.41,3.85,12.13,9.09,16.1  c3.88,2.94,10.26,5.98,20.03,5.98c2.96,0,6.24-0.29,9.87-0.93c0.89-0.16,1.79-0.39,2.69-0.59c-0.45,0.67-0.92,1.34-1.33,2.02  c-6.1,10.09-7.97,20.51-5.23,29.33c2.04,6.59,6.6,11.91,12.52,14.6c3,1.36,6.18,2.05,9.39,2.05c3.06,0,6.14-0.63,9.1-1.87  c5.85-2.46,13.95-8.52,19.32-23.37c0.31-0.85,0.56-1.74,0.82-2.63c0.36,0.72,0.7,1.46,1.08,2.15  c5.69,10.33,13.78,17.15,22.78,19.19c1.86,0.42,3.71,0.63,5.56,0.63c4.85,0,9.52-1.43,13.36-4.17c5.23-3.75,8.57-9.4,9.39-15.91  c0.79-6.3-0.4-16.34-10.58-28.43c-0.58-0.7-1.22-1.35-1.85-2.03c0.8,0.05,1.61,0.12,2.41,0.14  C347.76,423.81,348.12,423.81,348.49,423.81L348.49,423.81z M255.1,354.44c0.4-3.25,1.97-5.93,4.52-7.75  c1.82-1.3,4.02-1.97,6.38-1.97c0.97,0,1.98,0.12,2.99,0.34c5.65,1.29,10.98,6.03,15.01,13.35c5.82,10.57,8.16,25.7,9.08,35.26  c-8.8-3.83-22.4-10.78-30.11-19.94C257.2,366.87,254.4,360.01,255.1,354.44L255.1,354.44z M255.85,421.01  c-8.85,1.57-16.17,0.58-20.65-2.82c-2.6-1.97-4.14-4.67-4.45-7.79c-0.31-3.15,0.86-6.32,3.28-8.93c3.81-4.1,10.24-6.34,18.18-6.34  c0.29,0,0.59,0,0.88,0.01c12.06,0.24,26.35,5.79,35.09,9.77C280.49,410.61,267.68,418.9,255.85,421.01L255.85,421.01z   M293.25,450.82c-3.05,8.44-7.58,14.28-12.76,16.46c-3.02,1.26-6.12,1.25-8.97-0.04c-2.87-1.31-5.04-3.9-6.09-7.3  c-1.71-5.54-0.28-12.53,4.05-19.67c6.24-10.32,18.18-19.91,26-25.5C296.55,424.3,297.32,439.56,293.25,450.82L293.25,450.82z   M301.19,408.79c-2.71,0-4.92-2.2-4.92-4.92c0-2.71,2.2-4.92,4.92-4.92c2.71,0,4.92,2.2,4.92,4.92  C306.11,406.59,303.9,408.79,301.19,408.79z M305.27,392.3c-1.09-9.53-1.86-24.78,2.22-36.04c3.06-8.44,7.59-14.29,12.77-16.47  c1.49-0.63,3-0.94,4.49-0.94c1.52,0,3.04,0.33,4.47,0.98c2.88,1.31,5.05,3.91,6.1,7.31c1.71,5.53,0.27,12.51-4.05,19.67  C325.02,377.12,313.09,386.71,305.27,392.3L305.27,392.3z M345.63,452.63c-0.41,3.24-1.97,5.92-4.52,7.74  c-2.57,1.85-5.91,2.42-9.37,1.63c-5.65-1.28-10.99-6.03-15.02-13.35c-5.81-10.57-8.15-25.7-9.08-35.26  c8.8,3.83,22.4,10.78,30.11,19.94C343.53,440.2,346.33,447.05,345.63,452.63L345.63,452.63z M312.53,402.15  c7.71-5.71,20.51-13.99,32.34-16.1c8.83-1.58,16.17-0.57,20.65,2.83c2.6,1.97,4.14,4.67,4.45,7.78c0.31,3.15-0.86,6.32-3.28,8.94  c-3.93,4.26-10.67,6.44-19.06,6.33C335.56,411.68,321.29,406.14,312.53,402.15L312.53,402.15z"></path>	<path class="st0" d="M542.27,278.27c-1.84-5.91-6.94-14.35-20.84-20.96c-0.67-0.32-1.39-0.6-2.09-0.89  c0.6-0.23,1.23-0.43,1.82-0.67c10.56-4.53,17.94-11.74,20.78-20.29c2.12-6.4,1.52-13.23-1.66-18.74  c-3.15-5.45-8.34-9.24-14.61-10.65c-6.05-1.37-15.91-1.16-28.57,7.56c-0.61,0.42-1.2,0.89-1.8,1.35c0.1-0.63,0.22-1.26,0.3-1.89  c1.35-11.42-1.21-21.41-7.2-28.15c-4.48-5.04-10.7-7.93-17.05-7.93c-6.3,0-12.17,2.6-16.53,7.31c-4.2,4.56-8.96,13.2-7.74,28.54  c0.06,0.74,0.18,1.48,0.27,2.22c-0.49-0.4-0.98-0.82-1.48-1.19v0c-9.21-6.87-19.14-9.63-27.97-7.84c-6.6,1.36-12.22,5.3-15.4,10.8  c-3.15,5.45-3.83,11.84-1.92,17.98c1.84,5.91,6.94,14.35,20.84,20.96c0.67,0.32,1.4,0.58,2.09,0.87c-0.6,0.23-1.22,0.45-1.81,0.7  c-10.56,4.53-17.94,11.74-20.78,20.29c-2.12,6.4-1.52,13.23,1.66,18.74c3.15,5.45,8.34,9.24,14.61,10.65  c1.64,0.37,3.57,0.63,5.75,0.63c5.86,0,13.6-1.83,22.83-8.19c0.61-0.42,1.2-0.89,1.8-1.35c-0.1,0.63-0.22,1.26-0.3,1.89  c-1.35,11.42,1.21,21.41,7.2,28.15c4.48,5.04,10.7,7.93,17.05,7.93c6.3,0,12.17-2.6,16.53-7.31c4.2-4.56,8.96-13.2,7.74-28.54  c-0.06-0.74-0.18-1.48-0.27-2.22c0.49,0.4,0.98,0.82,1.48,1.19v0c7.38,5.5,15.21,8.38,22.57,8.38c1.84,0,3.64-0.18,5.4-0.54  c6.6-1.36,12.22-5.3,15.4-10.8C543.5,290.79,544.18,284.4,542.27,278.27L542.27,278.27z M503.84,223.39  c5.8-3.99,11.4-6.08,16.13-6.08c1.08,0,2.11,0.11,3.09,0.33c3.04,0.68,5.44,2.41,6.93,5.01c1.51,2.6,1.74,5.83,0.67,9.06  c-1.76,5.29-6.8,9.95-14.2,13.13c-10.61,4.56-25.22,5.42-34.54,5.44C486.46,242.14,494.36,229.91,503.84,223.39L503.84,223.39z   M463.56,192.37c2.11-2.29,4.82-3.5,7.8-3.5c3.01,0,5.91,1.4,8.17,3.94c3.71,4.17,5.23,10.87,4.28,18.87  c-1.36,11.47-7.91,24.54-12.56,32.62c-4.77-7.98-11.41-20.94-12.32-32.4C458.24,203.28,459.88,196.34,463.56,192.37L463.56,192.37z   M476.3,255.65c0,2.46-2,4.46-4.46,4.46s-4.46-2-4.46-4.46s2-4.46,4.46-4.46C474.3,251.19,476.3,253.19,476.3,255.65z   M411.93,231.28c-0.93-2.98-0.63-5.93,0.87-8.51c1.51-2.6,4.17-4.42,7.51-5.11c0.98-0.2,2-0.3,3.04-0.3  c4.77,0,10.13,2.08,15.43,6.04v0c9.26,6.92,17.31,19.13,21.98,27.19c-9.35,0.14-23.84-0.59-34.23-5.53  C418.72,241.33,413.54,236.44,411.93,231.28L411.93,231.28z M439.03,289.68c-7.12,4.9-13.96,6.97-19.22,5.76  c-3.04-0.68-5.44-2.41-6.93-5.01c-1.51-2.6-1.74-5.83-0.67-9.06c1.76-5.29,6.8-9.95,14.2-13.13c10.61-4.56,25.22-5.42,34.54-5.43  C456.4,270.93,448.5,283.16,439.03,289.68L439.03,289.68z M479.31,320.7c-4.25,4.6-11.47,4.63-15.98-0.44  c-3.71-4.17-5.23-10.87-4.28-18.87c1.36-11.47,7.91-24.54,12.56-32.62c4.77,7.98,11.41,20.94,12.32,32.4  C484.61,309.79,482.98,316.73,479.31,320.7L479.31,320.7z M530.07,290.3c-1.51,2.6-4.17,4.42-7.51,5.11  c-5.45,1.13-12.02-0.92-18.47-5.74v0c-9.26-6.92-17.31-19.13-21.98-27.19c9.33-0.17,23.84,0.59,34.23,5.53  c7.81,3.71,12.99,8.61,14.6,13.77C531.86,284.77,531.57,287.72,530.07,290.3L530.07,290.3z"></path>	<path class="st0" d="M323.77,506.28c-0.65-2.12-2.15-3.84-4.2-4.83c-2.08-1-5.74-1.74-11.3,0.46c-1.89,0.75-3.73,1.85-5.45,3.09  c1.11-1.77,2.1-3.63,2.77-5.5c1.49-4.17,1.42-8.1-0.19-11.05c-1.16-2.12-3.08-3.62-5.27-4.12c-2.17-0.5-4.41-0.07-6.29,1.22  c-1.91,1.3-4.38,4.1-5.26,10.01c-0.3,2.01-0.26,4.15-0.04,6.26c-0.97-1.85-2.1-3.63-3.38-5.15c-2.87-3.38-6.3-5.28-9.67-5.36  c-2.41-0.05-4.67,0.85-6.2,2.51c-1.52,1.63-2.26,3.79-2.09,6.06c0.18,2.31,1.37,5.84,6.04,9.55c1.59,1.26,3.47,2.3,5.4,3.17  c-2.09-0.08-4.19,0-6.15,0.36c-4.36,0.79-7.72,2.82-9.47,5.69c-1.25,2.06-1.6,4.48-0.94,6.63c0.65,2.12,2.15,3.85,4.2,4.83  c2.08,1,5.74,1.74,11.3-0.46c1.92-0.76,3.76-1.93,5.52-3.21c-1.14,1.81-2.15,3.71-2.84,5.62c-1.49,4.17-1.42,8.1,0.19,11.05  c1.16,2.11,3.08,3.62,5.27,4.12c2.17,0.5,4.41,0.07,6.29-1.22c0.51-0.34,1.05-0.8,1.6-1.38c1.52-1.63,3.01-4.29,3.66-8.63  c0.3-2.01,0.26-4.15,0.05-6.26c0.97,1.85,2.1,3.63,3.38,5.14c2.87,3.38,6.3,5.28,9.67,5.36c2.41,0.05,4.67-0.85,6.2-2.51  c1.52-1.63,2.26-3.79,2.09-6.06c-0.18-2.31-1.37-5.84-6.04-9.55c-1.59-1.26-3.46-2.3-5.4-3.17c2.09,0.08,4.19,0,6.15-0.36  c3.51-0.63,6.38-2.07,8.27-4.11c0.46-0.49,0.86-1.02,1.2-1.59C324.09,510.85,324.43,508.43,323.77,506.28L323.77,506.28z   M292.47,521.72c-3.57,0-6.48-2.9-6.48-6.48c0-3.57,2.9-6.48,6.48-6.48c3.57,0,6.48,2.9,6.48,6.48  C298.94,518.82,296.04,521.72,292.47,521.72z"></path>	<path class="st0" d="M241.84,453.31c-1.43-0.84-4-1.59-8.1-0.35c-1.4,0.42-2.77,1.1-4.08,1.88c0.9-1.2,1.71-2.47,2.31-3.76  c1.32-2.89,1.5-5.7,0.52-7.91c-0.7-1.59-1.98-2.77-3.52-3.26c-1.52-0.49-3.15-0.31-4.56,0.49c-1.44,0.82-3.37,2.67-4.36,6.84  c-0.33,1.42-0.44,2.95-0.41,4.47c-0.59-1.38-1.28-2.72-2.11-3.88c-1.85-2.59-4.19-4.16-6.59-4.41c-1.72-0.18-3.39,0.33-4.58,1.41  c-1.18,1.07-1.84,2.57-1.86,4.2c-0.01,1.66,0.63,4.26,3.75,7.19c1.06,1,2.34,1.85,3.67,2.59c-1.49-0.18-3-0.25-4.42-0.11  c-3.16,0.3-5.69,1.55-7.11,3.5c-1.02,1.4-1.41,3.11-1.07,4.68c0.34,1.56,1.3,2.88,2.71,3.71c1.43,0.84,4,1.59,8.1,0.36  c1.42-0.43,2.81-1.15,4.14-1.96c-0.93,1.22-1.76,2.52-2.36,3.85c-1.32,2.89-1.5,5.7-0.53,7.91c0.7,1.58,1.98,2.77,3.52,3.26  c1.52,0.49,3.15,0.31,4.57-0.49c0.39-0.22,0.8-0.51,1.22-0.89c1.18-1.07,2.41-2.88,3.13-5.95c0.33-1.42,0.44-2.95,0.41-4.47  c0.59,1.38,1.28,2.72,2.11,3.88c1.85,2.59,4.19,4.16,6.59,4.41c1.72,0.18,3.39-0.33,4.58-1.41c1.18-1.07,1.84-2.57,1.86-4.2  c0.01-1.66-0.63-4.26-3.75-7.19c-1.06-1-2.34-1.85-3.67-2.59c1.49,0.18,3,0.25,4.42,0.11c2.55-0.24,4.68-1.1,6.16-2.44  c0.36-0.33,0.67-0.67,0.96-1.06c1.02-1.4,1.41-3.11,1.07-4.68C244.22,455.46,243.26,454.15,241.84,453.31L241.84,453.31z   M221.48,468.29c-3.71,0-6.73-3.01-6.73-6.73s3.01-6.73,6.73-6.73s6.73,3.01,6.73,6.73C228.21,465.28,225.2,468.29,221.48,468.29z"></path>	<path class="st0" d="M469.1,464.18c2.09-5.27,1.88-11.06-0.56-15.91c-2.42-4.77-6.64-8.22-11.86-9.7  c-4.1-1.16-10.41-1.57-18.5,2.17c0.2-6.75-1.58-12.78-5.19-17.31c-3.53-4.44-8.65-7.15-14.05-7.46c-5.34-0.3-10.44,1.64-14.35,5.44  c-3.05,2.97-6.56,8.24-7.34,17.1c-5.75-3.56-11.83-5.01-17.58-4.17c-5.6,0.84-10.52,3.91-13.48,8.45  c-2.92,4.48-3.8,9.86-2.46,15.11c1.03,4.12,3.83,9.8,11.13,14.95c-5.95,3.19-10.27,7.75-12.42,13.16  c-2.06,5.27-1.85,11.05,0.59,15.88c2.42,4.77,6.64,8.22,11.86,9.7c1.49,0.42,3.09,0.69,4.74,0.79c4.39,0.19,9.01-0.76,13.76-2.96  c-0.2,6.76,1.58,12.78,5.18,17.31c3.53,4.44,8.65,7.15,14.06,7.46c0.35,0.02,0.7,0.02,1.04,0.02c4.96,0,9.65-1.91,13.31-5.46  c3.05-2.97,6.55-8.24,7.34-17.09c4.26,2.63,8.72,4.12,13.12,4.38c1.5,0.07,3.01,0,4.46-0.22c5.6-0.84,10.52-3.91,13.48-8.44  c2.92-4.48,3.8-9.84,2.47-15.12c-1.03-4.12-3.83-9.8-11.13-14.95C462.67,474.11,466.99,469.56,469.1,464.18L469.1,464.18z   M398.46,491.25c-2.35,2.41-4.64,4.31-6.82,5.63c-4.17,2.55-8.15,3.84-11.36,3.63c-0.77-0.05-1.48-0.16-2.15-0.36  c-2.04-0.58-3.6-1.85-4.52-3.64c-0.91-1.81-0.95-4.07-0.12-6.17c1.42-3.59,5.08-6.61,10.32-8.54c2.45-0.89,5.42-1.58,8.86-2.04  l2.34-0.31c-0.34,0.49-0.64,0.99-0.85,1.53c-0.66,1.67-0.6,3.49,0.15,4.99c0.75,1.48,2.07,2.55,3.71,3.02  c0.44,0.12,0.96,0.22,1.55,0.26c0.26,0.01,0.56-0.01,0.85-0.02L398.46,491.25z M399.84,459.31c-1.78,0.27-3.33,1.22-4.24,2.63  c-0.91,1.39-1.18,3.07-0.76,4.71c0.15,0.6,0.49,1.33,0.96,2.09l-2.48-0.62c-3.63-0.9-6.34-1.87-8.49-3.04  c-5.29-2.88-8.7-6.46-9.6-10.08c-0.52-2.05-0.21-4.04,0.89-5.73c1.11-1.69,3.04-2.85,5.3-3.19c0.49-0.08,0.99-0.11,1.49-0.11  c3.45,0,7.31,1.66,11.04,4.77c1.95,1.63,3.99,3.82,6.06,6.5l1.58,2.04C401,459.23,400.42,459.23,399.84,459.31L399.84,459.31z   M418.68,520.23c-1.49,1.45-3.33,2.15-5.42,2.1c-2.02-0.12-3.98-1.2-5.41-2.99c-2.39-3.01-3.18-7.69-2.23-13.21  c0.43-2.49,1.3-5.34,2.59-8.48l0.98-2.39c0.25,0.54,0.55,1.05,0.9,1.51c1.12,1.41,2.72,2.27,4.4,2.36c1.66,0.09,3.25-0.52,4.47-1.7  c0.47-0.46,0.96-1.16,1.39-2l0.77,2.74c0.92,3.25,1.41,6.19,1.47,8.74C422.78,514.58,420.56,518.4,418.68,520.23L418.68,520.23z   M415.99,482.99c-4.49,0-8.14-3.64-8.14-8.14s3.64-8.14,8.14-8.14s8.14,3.64,8.14,8.14S420.48,482.99,415.99,482.99z   M425.93,444.01c-0.43,2.49-1.3,5.32-2.59,8.46l-0.99,2.41c-0.25-0.53-0.54-1.04-0.89-1.49c-1.12-1.41-2.72-2.27-4.4-2.36  c-1.66-0.09-3.25,0.52-4.47,1.7c-0.46,0.45-0.93,1.13-1.37,1.95l-0.8-2.84c-0.92-3.25-1.41-6.34-1.47-8.9  c-0.19-7.69,2.03-11.81,3.91-13.65c1.41-1.35,3.2-2.7,5.05-2.7h0.38c2.02,0,3.98,1.81,5.41,3.6  C426.1,433.2,426.89,438.5,425.93,444.01L425.93,444.01z M457.25,495.14v0.02c0,2.05-0.26,4.04-1.36,5.73  c-1.11,1.69-3.5,2.85-5.77,3.19c-0.67,0.11-1.37,0.12-2.06,0.1c-3.34-0.18-6.97-1.84-10.48-4.77c-1.95-1.63-3.99-3.82-6.06-6.5  l-1.61-2.07c0.1,0.01,0.2,0.07,0.3,0.08c0.51,0.03,1,0,1.48-0.07c1.78-0.27,3.33-1.22,4.24-2.63c0.91-1.39,1.18-3.06,0.76-4.71  c-0.17-0.65-0.54-1.44-1.08-2.27l3.03,0.76c3.26,0.84,6.29,1.87,8.53,3.09C452.47,487.95,457.25,491.53,457.25,495.14  L457.25,495.14z M458.06,459.82c-1.4,3.58-5.07,6.6-10.31,8.53c-2.41,0.88-5.32,1.56-8.65,2l-2.56,0.34  c0.34-0.49,0.63-0.99,0.85-1.53c0.66-1.67,0.6-3.5-0.15-4.99c-0.75-1.48-2.07-2.56-3.71-3.02c-0.63-0.18-1.48-0.25-2.43-0.2  l1.99-2.04c2.34-2.41,4.63-4.3,6.82-5.63c4.6-2.82,8.15-3.64,10.73-3.64c1.11,0,2.03,0.15,2.8,0.37c2.03,0.58,3.59,1.85,4.51,3.64  C458.86,455.43,458.9,457.69,458.06,459.82L458.06,459.82z"></path>	<path class="st0" d="M164.88,282.53c-1.59-2.63-5.13-6.09-12.9-7.67c-2.64-0.53-5.48-0.64-8.3-0.51c2.52-1.16,4.96-2.52,7.06-4.12  c4.68-3.56,7.45-7.97,7.78-12.43c0.25-3.19-0.8-6.26-2.87-8.41c-2.05-2.12-4.86-3.26-7.88-3.2c-3.08,0.07-7.83,1.4-13.09,7.33  c-1.78,2.02-3.3,4.42-4.58,6.93c0.25-2.76,0.3-5.56-0.04-8.17c-0.74-5.83-3.18-10.44-6.87-12.97c-2.64-1.81-5.82-2.43-8.72-1.71  c-2.87,0.71-5.26,2.57-6.71,5.23c-1.48,2.7-2.71,7.49-0.19,15c0.85,2.55,2.19,5.07,3.71,7.44c-2.27-1.6-4.67-3.04-7.1-4.05  c-5.42-2.27-10.63-2.46-14.66-0.53c-2.89,1.38-5.01,3.82-5.84,6.69c-0.81,2.84-0.4,5.83,1.18,8.42c1.59,2.63,5.13,6.09,12.9,7.68  c2.69,0.55,5.59,0.58,8.46,0.43c-2.58,1.18-5.08,2.56-7.23,4.2c-4.68,3.56-7.45,7.97-7.79,12.44c-0.24,3.19,0.81,6.25,2.88,8.4  c2.05,2.12,4.86,3.26,7.88,3.19c0.81-0.02,1.74-0.12,2.77-0.37c2.86-0.71,6.46-2.58,10.32-6.95c1.78-2.02,3.3-4.42,4.58-6.93  c-0.26,2.76-0.3,5.55,0.04,8.17c0.74,5.83,3.18,10.44,6.87,12.97c2.64,1.81,5.82,2.43,8.72,1.71c2.87-0.71,5.26-2.58,6.71-5.23  c1.48-2.7,2.71-7.49,0.19-15c-0.85-2.55-2.19-5.07-3.71-7.44c2.27,1.6,4.67,3.04,7.1,4.05c4.36,1.83,8.59,2.31,12.17,1.42  c0.87-0.22,1.7-0.52,2.49-0.89c2.89-1.38,5.01-3.82,5.84-6.69C166.87,288.11,166.45,285.12,164.88,282.53L164.88,282.53z   M124.76,286.66c-4.08,0-7.38-3.31-7.38-7.38c0-4.08,3.31-7.38,7.38-7.38c4.08,0,7.38,3.31,7.38,7.38  C132.14,283.35,128.83,286.66,124.76,286.66z"></path>	<path class="st0" d="M231.95,353.62c-0.68-4.94-3.34-9.26-7.5-12.15c-3.1-2.17-8.24-4.36-15.84-3.78  c1.91-5.53,2.07-10.99,0.37-15.77c-1.74-4.98-5.42-8.93-10.1-10.84c-4.63-1.89-9.71-1.74-14.28,0.41  c-3.42,1.61-7.86,4.94-11.19,11.84c-3.83-4.42-8.49-7.28-13.5-8.22c-5.19-0.95-10.44,0.26-14.43,3.34  c-3.93,3.06-6.34,7.53-6.77,12.57c-0.33,3.77,0.34,9.27,4.65,15.61c-5.74,1.11-10.54,3.71-13.85,7.57  c-3.44,4.01-5.01,9.16-4.33,14.17c0.67,4.94,3.34,9.26,7.49,12.14c3.09,2.17,8.22,4.37,15.86,3.78c-1.91,5.52-2.06,10.99-0.37,15.8  c1.76,4.97,5.45,8.91,10.1,10.82c2.15,0.87,4.41,1.31,6.65,1.31c2.59,0,5.16-0.58,7.59-1.71c1.33-0.62,2.61-1.4,3.82-2.34  c3-2.33,5.48-5.52,7.4-9.52c3.83,4.42,8.49,7.28,13.48,8.21c5.17,0.96,10.43-0.24,14.44-3.34c3.93-3.06,6.34-7.53,6.77-12.56  c0.33-3.77-0.34-9.28-4.65-15.61c4.17-0.8,7.86-2.39,10.85-4.71c1.09-0.85,2.1-1.81,3-2.86  C231.05,363.78,232.64,358.62,231.95,353.62L231.95,353.62z M155.15,369.08c0.41,0.29,0.95,0.58,1.57,0.82  c-1.95,0.85-3.71,1.49-5.23,1.83c-6.95,1.52-10.5-0.2-12.02-1.26c-1.42-0.99-2.3-2.7-2.52-4.34c-0.22-1.63,0.36-4.03,1.59-5.47  c2.14-2.51,5.99-5.31,10.85-5.31h0.43c2.06,0,4.42,1.37,7,1.98c-1.08,0.54-2.05,1.2-2.78,2.05c-1.28,1.5-1.88,3.41-1.63,5.23  C152.64,366.42,153.62,368.01,155.15,369.08L155.15,369.08z M155.59,342.99c-4.77-5.23-5.22-9.1-5.06-10.94  c0.15-1.74,0.92-3.2,2.23-4.21c0.99-0.77,2.28-1.18,3.64-1.18c0.43,0,0.88,0.04,1.33,0.12c3.24,0.6,6.41,3.23,8.92,7.4  c0.87,1.44,1.67,3.23,2.43,5.21c-0.46-0.18-0.92-0.37-1.39-0.46c-1.94-0.36-3.89,0.08-5.34,1.21c-1.44,1.12-2.32,2.76-2.49,4.63  c-0.05,0.56,0,1.25,0.12,1.99C158.27,345.5,156.74,344.25,155.59,342.99L155.59,342.99z M174.44,389.91  c-1.3,4.08-3.16,7.16-5.4,8.9c-0.49,0.39-1,0.7-1.56,0.96c-1.58,0.72-3.21,0.78-4.74,0.17c-1.52-0.62-2.76-2.01-3.39-3.78  c-1.1-3.11-0.4-7.16,1.94-11.42c0.82-1.48,1.98-3.08,3.3-4.71c0.08,0.48,0.14,0.97,0.3,1.42c0.66,1.86,2.01,3.33,3.71,4.03  c1.69,0.69,3.55,0.63,5.24-0.16c0.46-0.22,0.96-0.51,1.47-0.9c0.07-0.05,0.12-0.12,0.19-0.18  C175.29,386.33,174.97,388.28,174.44,389.91L174.44,389.91z M178.19,367.86c-3.03,0-5.48-2.45-5.48-5.48  c0-3.03,2.45-5.48,5.48-5.48s5.48,2.45,5.48,5.48C183.67,365.41,181.21,367.86,178.19,367.86z M183.28,336.69  c-0.51,0.24-1.08,0.63-1.66,1.11c0.23-2.12,0.56-4.08,1.07-5.7c1.59-4.99,4.06-8.49,6.95-9.85c0.85-0.4,1.73-0.6,2.59-0.6  c0.73,0,1.45,0.14,2.15,0.43c1.53,0.63,2.77,2,3.4,3.8c1.1,3.09,0.4,7.14-1.95,11.4c-0.82,1.49-1.98,3.08-3.3,4.71  c-0.08-0.48-0.14-0.97-0.3-1.42c-0.66-1.86-2.01-3.33-3.71-4.03C186.83,335.84,184.96,335.89,183.28,336.69L183.28,336.69z   M204.37,394.16c-1.3,1.01-3.09,1.42-4.98,1.05c-3.23-0.6-6.4-3.23-8.91-7.4c-0.87-1.44-1.67-3.23-2.43-5.2  c0.46,0.18,0.92,0.37,1.39,0.46c1.94,0.36,3.89-0.08,5.34-1.21c1.44-1.12,2.32-2.76,2.48-4.63c0.05-0.56,0-1.24-0.12-1.99  c1.71,1.25,3.25,2.51,4.39,3.77c3.54,3.88,5.33,7.76,5.06,10.95C206.45,391.69,205.68,393.15,204.37,394.16L204.37,394.16z   M218.61,360.06c-0.38,0.45-0.81,0.86-1.28,1.22c-2.24,1.74-5.64,2.74-9.59,2.81c-1.65,0.05-3.6-0.15-5.68-0.48  c0.37-0.3,0.73-0.63,1.04-0.99c1.28-1.5,1.88-3.41,1.63-5.23c-0.25-1.81-1.23-3.39-2.76-4.46c-0.46-0.32-1.08-0.63-1.79-0.89  c1.94-0.86,3.8-1.56,5.46-1.92c6.94-1.5,10.49,0.04,12,1.08l0.02,0.02c1.42,0.99,2.3,2.38,2.52,4.02  C220.41,356.87,219.84,358.63,218.61,360.06L218.61,360.06z"></path>	<path class="st0" d="M257.31,207.03c-1.84-5.91-6.94-14.35-20.84-20.96c-0.67-0.32-1.4-0.6-2.1-0.89c0.6-0.23,1.23-0.43,1.82-0.68  c10.56-4.53,17.94-11.74,20.78-20.29c2.12-6.4,1.52-13.23-1.66-18.74c-3.15-5.45-8.34-9.24-14.61-10.65  c-6.04-1.37-15.91-1.16-28.57,7.56c-0.61,0.42-1.2,0.89-1.8,1.35c0.1-0.63,0.22-1.26,0.3-1.89c1.35-11.42-1.21-21.41-7.2-28.15  c-4.48-5.04-10.7-7.93-17.05-7.93c-6.3,0-12.17,2.6-16.53,7.31c-4.2,4.56-8.96,13.2-7.74,28.54c0.06,0.74,0.18,1.48,0.27,2.22  c-0.49-0.4-0.98-0.82-1.48-1.19v0c-9.21-6.87-19.14-9.63-27.97-7.84c-6.6,1.36-12.22,5.3-15.4,10.8  c-3.15,5.45-3.83,11.84-1.92,17.98c1.84,5.91,6.94,14.35,20.84,20.96c0.68,0.32,1.4,0.58,2.09,0.87c-0.6,0.23-1.22,0.45-1.81,0.7  c-10.56,4.53-17.94,11.74-20.78,20.29c-2.12,6.4-1.52,13.23,1.66,18.74c3.15,5.45,8.34,9.24,14.61,10.65  c1.64,0.37,3.57,0.63,5.75,0.63c5.86,0,13.6-1.83,22.83-8.19c0.61-0.42,1.2-0.89,1.8-1.35c-0.1,0.63-0.22,1.26-0.3,1.89  c-1.35,11.42,1.21,21.41,7.2,28.15c4.48,5.04,10.7,7.93,17.05,7.93c6.3,0,12.17-2.6,16.53-7.31c4.2-4.56,8.96-13.2,7.74-28.54  c-0.06-0.74-0.18-1.48-0.27-2.22c0.49,0.4,0.98,0.82,1.48,1.19v0c7.38,5.5,15.21,8.38,22.57,8.38c1.84,0,3.64-0.18,5.4-0.54  c6.6-1.36,12.22-5.3,15.4-10.8C258.54,219.55,259.22,213.16,257.31,207.03L257.31,207.03z M218.87,152.15  c5.8-3.99,11.4-6.08,16.13-6.08c1.08,0,2.11,0.11,3.09,0.33c3.04,0.68,5.44,2.41,6.93,5.01c1.51,2.6,1.74,5.83,0.67,9.06  c-1.76,5.29-6.8,9.95-14.2,13.13c-10.61,4.56-25.22,5.42-34.54,5.44C201.5,170.9,209.4,158.67,218.87,152.15L218.87,152.15z   M178.59,121.13c2.11-2.29,4.82-3.5,7.8-3.5c3.01,0,5.91,1.4,8.17,3.94c3.71,4.17,5.23,10.87,4.28,18.87  c-1.36,11.47-7.91,24.54-12.56,32.62c-4.77-7.98-11.41-20.94-12.32-32.4C173.28,132.04,174.92,125.1,178.59,121.13L178.59,121.13z   M192.9,185.93c0,3.93-3.19,7.12-7.12,7.12s-7.12-3.19-7.12-7.12s3.19-7.12,7.12-7.12S192.9,182,192.9,185.93z M126.96,160.04  c-0.93-2.98-0.63-5.93,0.87-8.51c1.51-2.6,4.17-4.42,7.51-5.11c0.98-0.2,2-0.3,3.04-0.3c4.77,0,10.13,2.08,15.43,6.04v0  c9.26,6.92,17.31,19.13,21.98,27.19c-9.33,0.14-23.85-0.59-34.23-5.53C133.76,170.09,128.57,165.2,126.96,160.04L126.96,160.04z   M154.06,218.44c-7.12,4.9-13.95,6.97-19.22,5.76c-3.04-0.68-5.44-2.41-6.93-5.01c-1.51-2.6-1.74-5.83-0.67-9.06  c1.76-5.29,6.8-9.95,14.2-13.13c10.61-4.56,25.22-5.42,34.54-5.43C171.44,199.69,163.53,211.92,154.06,218.44L154.06,218.44z   M194.34,249.46c-4.24,4.6-11.47,4.62-15.98-0.44c-3.71-4.17-5.23-10.87-4.28-18.87c1.36-11.47,7.91-24.54,12.56-32.62  c4.77,7.98,11.41,20.94,12.32,32.4C199.65,238.55,198.01,245.49,194.34,249.46L194.34,249.46z M245.11,219.06  c-1.51,2.6-4.17,4.42-7.51,5.11c-5.45,1.14-12.02-0.92-18.47-5.74v0c-9.26-6.92-17.31-19.13-21.98-27.19  c9.3-0.18,23.84,0.59,34.23,5.53c7.81,3.71,12.99,8.61,14.6,13.77C246.9,213.53,246.61,216.48,245.11,219.06L245.11,219.06z"></path>	<path class="st0" d="M309.01,136.38c0.67-1.69,0.6-3.52-0.15-5.03c-0.76-1.49-2.08-2.58-3.73-3.04c-1.67-0.48-4.47-0.55-8.31,1.79  c-1.3,0.8-2.52,1.85-3.63,2.99c0.59-1.45,1.08-2.96,1.34-4.43c0.57-3.28,0.02-6.17-1.56-8.16c-1.13-1.42-2.74-2.29-4.43-2.37  c-1.67-0.09-3.27,0.52-4.5,1.71c-1.25,1.21-2.71,3.6-2.6,8.09c0.04,1.52,0.34,3.11,0.77,4.64c-0.96-1.24-2.02-2.42-3.16-3.38  c-2.55-2.13-5.34-3.1-7.84-2.72c-1.79,0.27-3.35,1.23-4.27,2.65c-0.92,1.4-1.19,3.09-0.77,4.75c0.42,1.69,1.76,4.15,5.7,6.3  c1.37,0.74,2.93,1.24,4.51,1.64c-1.59,0.21-3.18,0.54-4.6,1.07c-3.12,1.15-5.35,3.08-6.29,5.43c-0.66,1.69-0.6,3.52,0.16,5.02  c0.76,1.49,2.08,2.58,3.74,3.04c0.45,0.12,0.96,0.22,1.56,0.26c1.66,0.09,3.93-0.32,6.74-2.04c1.3-0.8,2.52-1.85,3.63-2.99  c-0.59,1.45-1.08,2.96-1.34,4.42c-0.57,3.28-0.02,6.17,1.56,8.16c1.13,1.42,2.74,2.29,4.43,2.37c1.67,0.09,3.27-0.52,4.5-1.71  c1.25-1.21,2.71-3.6,2.6-8.09c-0.04-1.52-0.34-3.11-0.77-4.64c0.96,1.24,2.02,2.41,3.16,3.38c2.05,1.71,4.26,2.68,6.35,2.8  c0.51,0.03,1,0,1.49-0.07c1.79-0.27,3.35-1.23,4.27-2.65c0.92-1.4,1.19-3.09,0.77-4.75c-0.42-1.69-1.76-4.15-5.7-6.3  c-1.34-0.73-2.86-1.26-4.41-1.66c1.56-0.21,3.11-0.54,4.51-1.05C305.86,140.67,308.09,138.74,309.01,136.38L309.01,136.38z   M286.82,148.13c-3,0-5.45-2.43-5.45-5.45c0-3,2.43-5.45,5.45-5.45c3,0,5.45,2.43,5.45,5.45  C292.25,145.7,289.82,148.13,286.82,148.13z"></path>	<path class="st0" d="M351.67,499.22c0,5.27-4.27,9.55-9.55,9.55c-5.27,0-9.55-4.27-9.55-9.55c0-5.27,4.27-9.55,9.55-9.55  C347.4,489.67,351.67,493.95,351.67,499.22"></path>	<path class="st0" d="M367.14,347.36c0,3.6-2.92,6.52-6.52,6.52c-3.6,0-6.52-2.92-6.52-6.52c0-3.6,2.92-6.52,6.52-6.52  C364.22,340.84,367.14,343.76,367.14,347.36"></path>	<path class="st0" d="M199.37,424.83c0,3.84-3.12,6.96-6.97,6.96s-6.97-3.12-6.97-6.96c0-3.85,3.12-6.97,6.97-6.97  S199.37,420.98,199.37,424.83"></path>	<path class="st0" d="M409.12,552.81c0,7.17-10.76,7.17-10.76,0C398.36,545.63,409.12,545.63,409.12,552.81"></path>	<path class="st0" d="M250.26,503.96c0,6.43-9.64,6.43-9.64,0C240.62,497.53,250.26,497.53,250.26,503.96"></path>	<path class="st0" d="M540.45,319.46c0,5-7.5,5-7.5,0C532.94,314.46,540.45,314.46,540.45,319.46"></path></g></svg>